<?xml version="1.0" encoding="utf-8"?>
<!-- Generator: Adobe Illustrator 25.1.0, SVG Export Plug-In . SVG Version: 6.00 Build 0)  -->
<svg version="1.1" id="Layer_1" xmlns="http://www.w3.org/2000/svg" xmlns:xlink="http://www.w3.org/1999/xlink" x="0px" y="0px"
	 viewBox="0 0 3710 3710" style="enable-background:new 0 0 3710 3710;" xml:space="preserve">
<style type="text/css">
	.st0{fill:#FFFFFF;}
	.st1{fill:#CDF7EF;}
	.st2{fill:#1ABC9C;}
	.st3{fill:#ADEADE;}
	.st4{opacity:0.5;}
	.st5{fill:#A9EADD;}
	.st6{opacity:0.57;}
	.st7{fill:#66C4B2;}
	.st8{fill:#E67E22;}
	.st9{opacity:0.7;fill:#FFFFFF;enable-background:new    ;}
	.st10{opacity:0.9;fill:#FFFFFF;enable-background:new    ;}
	.st11{opacity:0.8;fill:#FFFFFF;enable-background:new    ;}
	.st12{fill:#8BE8D6;}
	.st13{fill:#2C3E50;}
	.st14{fill:#D35400;}
	.st15{fill:#EE944A;}
	.st16{fill:#F9B485;}
	.st17{opacity:0.7;fill:#EE944A;enable-background:new    ;}
</style>
<g id="Background">
	<g>
		<g>
			<rect class="st0" width="3710" height="3710"/>
		</g>
	</g>
</g>
<g id="Illustration">
	<g>
		<path class="st1" d="M2920.3,2861.1c-57.2,60.2-111.4,99.1-154.2,129.8c-502.9,360.8-1097.9,255.6-1224.4,230
			C1355,3183,994,3109.7,733,2802.8C338.2,2338.4,399.6,1606.9,705.9,1124c56-88.3,352-578.6,953.4-657.2
			c364-47.6,788.3,48.4,1095.6,305.8C3399.9,1312.9,3354,2404.6,2920.3,2861.1z"/>
		<path class="st2" d="M2971.2,3250.7H739.8c-154.3,0-279.4-125.1-279.4-279.4v-665.7h2790.2v665.7
			C3250.6,3125.6,3125.5,3250.7,2971.2,3250.7z"/>
		<path class="st3" d="M2390.1,1092.2c-0.3-9.7-12.6-17.7-27.7-17.7h-571.1c-15.3,0-30.3,8.4-30.3,18.2v878.6
			c0,4.7,4.2,9.3,9.5,12.6s12.9,5.2,20.3,5.2l597.1-1.1c7.4,0,14.7-1.9,19.9-5.3s8.1-8.1,8-12.9L2390.1,1092.2z"/>
		<g class="st4">
			<g>
				<polygon class="st0" points="1969.5,1178 1806.8,1177.9 1805.5,1124.3 1968.4,1124.3 				"/>
				<polygon class="st0" points="2151.9,1178 1989.3,1177.9 1988.2,1124.3 2150.9,1124.3 				"/>
				<polygon class="st0" points="2334,1178 2171.7,1177.8 2170.7,1124.3 2333.2,1124.3 				"/>
			</g>
			<g>
				<polygon class="st0" points="1971.5,1274.1 1809.1,1274.2 1807.8,1221 1970.4,1221 				"/>
				<polygon class="st0" points="2153.6,1274.1 1991.3,1274.1 1990.2,1221 2152.6,1220.9 				"/>
				<polygon class="st0" points="2335.4,1274 2173.3,1274.1 2172.4,1220.9 2334.6,1220.9 				"/>
			</g>
			<g>
				<polygon class="st0" points="1973.6,1369.6 1811.4,1369.7 1810.2,1316.7 1972.4,1316.6 				"/>
				<polygon class="st0" points="2155.3,1369.4 1993.3,1369.6 1992.2,1316.6 2154.3,1316.5 				"/>
				<polygon class="st0" points="2336.8,1369.3 2175,1369.4 2174.1,1316.5 2336,1316.4 				"/>
			</g>
			<g>
				<polygon class="st0" points="1975.6,1464.7 1813.7,1464.8 1812.4,1412 1974.4,1411.9 				"/>
				<polygon class="st0" points="2157,1464.5 1995.3,1464.7 1994.2,1411.9 2156,1411.7 				"/>
				<polygon class="st0" points="2338.2,1464.3 2176.7,1464.5 2175.8,1411.7 2337.4,1411.6 				"/>
			</g>
			<g>
				<polygon class="st0" points="1977.6,1559.5 1816,1559.7 1814.8,1507 1976.5,1506.8 				"/>
				<polygon class="st0" points="2158.7,1559.2 1997.3,1559.4 1996.2,1506.8 2157.7,1506.7 				"/>
				<polygon class="st0" points="2339.6,1559 2178.4,1559.2 2177.4,1506.6 2338.8,1506.5 				"/>
			</g>
			<g>
				<polygon class="st0" points="1979.6,1653.9 1818.3,1654.1 1817,1601.7 1978.5,1601.5 				"/>
				<polygon class="st0" points="2160.4,1653.7 1999.2,1653.9 1998.2,1601.4 2159.4,1601.2 				"/>
				<polygon class="st0" points="2341,1653.4 2180,1653.6 2179.1,1601.2 2340.2,1601 				"/>
			</g>
			<g>
				<polygon class="st0" points="1981.6,1748 1820.6,1748.3 1819.3,1696 1980.5,1695.8 				"/>
				<polygon class="st0" points="2162.1,1747.7 2001.2,1748 2000.1,1695.8 2161.1,1695.5 				"/>
				<polygon class="st0" points="2342.4,1747.4 2181.7,1747.7 2180.7,1695.5 2341.6,1695.2 				"/>
			</g>
			<g>
				<polygon class="st0" points="1983.6,1841.8 1822.8,1842.2 1821.6,1790.1 1982.5,1789.8 				"/>
				<polygon class="st0" points="2163.7,1841.5 2003.2,1841.8 2002.1,1789.7 2162.8,1789.4 				"/>
				<polygon class="st0" points="2343.7,1841.1 2183.3,1841.4 2182.4,1789.4 2342.9,1789.1 				"/>
			</g>
			<g>
				<polygon class="st0" points="1985.6,1935.3 1825.1,1935.7 1823.9,1883.8 1984.5,1883.4 				"/>
				<polygon class="st0" points="2165.4,1934.9 2005.1,1935.3 2004,1883.4 2164.5,1883.1 				"/>
				<polygon class="st0" points="2345.1,1934.5 2184.9,1934.9 2184,1883 2344.3,1882.7 				"/>
			</g>
		</g>
		<path class="st5" d="M1032.3,1159.5c-0.2-8.5-7.1-15.3-15.6-15.3H501.6c-8.6,0-17.8,7-17.8,15.7v1202.2c0,6.4,3.6,12.6,8.2,17.1
			s11.3,7.1,17.7,7.1l520.8-1.4c6.5,0,12.8-2.6,17.3-7.3c4.5-4.6,7.1-10.9,7-17.4L1032.3,1159.5z"/>
		<g class="st6">
			<polygon class="st0" points="736.5,1229.3 568,1228.8 568,1207.7 736.3,1208.2 			"/>
			<polygon class="st0" points="736.9,1307 567.7,1306.2 567.8,1285 736.8,1285.7 			"/>
			<polygon class="st0" points="737.4,1385.3 567.5,1384.3 567.6,1362.9 737.3,1363.8 			"/>
			<polygon class="st0" points="737.9,1464.3 567.3,1463.1 567.3,1441.5 737.7,1442.6 			"/>
			<polygon class="st0" points="738.3,1543.9 567,1542.5 567.1,1520.7 738.2,1522 			"/>
			<polygon class="st0" points="739.3,1705.1 566.5,1703.3 566.6,1681.2 739.2,1682.9 			"/>
			<polygon class="st0" points="740.8,1952.1 565.8,1949.7 565.9,1927 740.6,1929.3 			"/>
			<polygon class="st0" points="738.8,1624.2 566.8,1622.6 566.8,1600.6 738.7,1602.1 			"/>
			<polygon class="st0" points="739.8,1786.7 566.3,1784.8 566.4,1762.4 739.7,1764.3 			"/>
			<polygon class="st0" points="740.3,1869.1 566.1,1866.9 566.1,1844.3 740.1,1846.5 			"/>
			<polygon class="st0" points="741.3,2035.8 565.6,2033.2 565.6,2010.3 741.1,2012.8 			"/>
			<polygon class="st0" points="741.8,2120.3 565.3,2117.4 565.4,2094.3 741.6,2097.1 			"/>
			<polygon class="st0" points="742.3,2205.5 565.1,2202.4 565.1,2179.1 742.1,2182.1 			"/>
			<polygon class="st0" points="742.8,2291.4 564.8,2288.1 564.9,2264.6 742.7,2267.8 			"/>
			<polygon class="st0" points="957.4,1230.1 787.8,1229.5 787.7,1208.4 957,1208.9 			"/>
			<polygon class="st0" points="958.8,1308 788.5,1307.2 788.3,1285.9 958.4,1286.6 			"/>
			<polygon class="st0" points="960.2,1386.6 789.2,1385.6 789,1364.1 959.8,1365 			"/>
			<polygon class="st0" points="961.6,1465.8 789.9,1464.6 789.7,1442.9 961.2,1444.1 			"/>
			<polygon class="st0" points="963,1545.7 790.6,1544.3 790.4,1522.4 962.6,1523.7 			"/>
			<polygon class="st0" points="965.8,1707.4 792,1705.6 791.8,1683.4 965.4,1685.1 			"/>
			<polygon class="st0" points="970.2,1955.2 794.1,1952.8 793.9,1930 969.8,1932.4 			"/>
			<polygon class="st0" points="964.4,1626.2 791.3,1624.6 791.1,1602.6 964,1604.1 			"/>
			<polygon class="st0" points="967.3,1789.3 792.7,1787.3 792.5,1764.9 966.9,1766.8 			"/>
			<polygon class="st0" points="968.7,1871.9 793.4,1869.7 793.2,1847.1 968.3,1849.3 			"/>
			<polygon class="st0" points="971.7,2039.3 794.8,2036.6 794.6,2013.6 971.3,2016.2 			"/>
			<polygon class="st0" points="973.2,2124 795.6,2121.1 795.4,2097.9 972.8,2100.8 			"/>
			<polygon class="st0" points="974.7,2209.5 796.3,2206.4 796.1,2183 974.3,2186 			"/>
			<polygon class="st0" points="976.2,2295.7 797,2292.4 796.8,2268.8 975.8,2272.1 			"/>
		</g>
		<path class="st7" d="M2825.2,1520.9c-16.1-33.6-27.6-68.7-30.3-106.9c-6.8-96.3,49.2-185.1,90.4-268
			c37.8-76.2,65.9-189.9-61.7-179.8c-101.7,8-221.2,109.4-234.8,215c-16.1,125,44.7,282.7-27.4,396.3
			c-101,158.9-173.8,122.5-173.8,390.6c0,114.6,63.5,177.8,136.1,212.6c114.7,54.9,251.5,32.7,342.9-55.7
			c80.8-78.2,128.8-190.5,112.5-303.3C2962.8,1707.8,2873.5,1621.4,2825.2,1520.9z"/>
		<path class="st3" d="M2739.9,2384.6c-2.3,0-4.3-1.5-4.9-3.8c-63.3-252.6-97.7-481.5-102.4-680.5c-3.7-159.4,11.5-300.1,45.4-418.2
			c57.9-201.9,148.9-266.9,152.7-269.6c2.3-1.6,5.5-1,7.1,1.3c1.6,2.3,1,5.5-1.3,7.1c-0.9,0.6-92.4,66.3-149.1,265.4
			c-52.5,184.1-85.1,523,57.5,1092.1c0.7,2.7-1,5.5-3.7,6.2C2740.8,2384.5,2740.4,2384.6,2739.9,2384.6z"/>
		<path class="st3" d="M2926.6,1238.3c-4.9-1.3-10.3-1.8-16.1-1.1c-31.8,3.7-44.9,37.2-54.2,63.4c-8,22.5-17.4,49.7-12.7,74
			c5.1,26.3,33,47.8,53.3,21.1c23-30.4,57.6-77,57.8-117.2C2954.8,1258.5,2943.6,1242.9,2926.6,1238.3z"/>
		<path class="st3" d="M3260.2,1997.3c13-85.7-18.1-184.1-33.7-274.7c-8.2-47.9-12-95.5-4.3-143.7c7.6-48,30.2-99.9,9.4-147.7
			c-41.9-96.3-141.5-52.5-198.6,20c-66.2,84.2-84.3,221.7-109.4,327.6c-15.2,63.8-38,129.3-46,194.4
			c-13.2,107.8,11.1,182.6,62.7,233.1c49.4,48.5,124.8,58.5,185.2,24.8C3180.1,2200.6,3239.2,2135.5,3260.2,1997.3z"/>
		<path class="st7" d="M3032.3,2396.7c-2.4,0-4.6-1.8-5-4.2c-0.2-1.3-21.9-132.1-22.5-312.6c-0.5-166.7,17.4-411.1,105.5-628.9
			c1.1-2.6,4-3.9,6.6-2.8c2.6,1.1,3.9,4,2.8,6.6c-87.5,216.3-105.2,459.2-104.7,624.9c0.6,179.7,22.1,309.9,22.3,311.2
			c0.5,2.8-1.4,5.4-4.2,5.9C3032.9,2396.6,3032.6,2396.7,3032.3,2396.7z"/>
		<path class="st7" d="M1812.5,853.3c-0.3-18.4-15.3-33.5-33.7-33.5h-695.1c-18.6,0-36.9,15.9-36.9,34.6V2520
			c0,9,5.2,17.6,11.5,23.9c6.3,6.3,15.8,9.9,24.7,9.9l726.8-2c9,0,17.9-3.7,24.2-10.1c6.3-6.5,9.9-15.4,9.7-24.4L1812.5,853.3z"/>
		<g class="st4">
			<g>
				<polygon class="st0" points="1300.6,1016 1102.6,1015.8 1101,914.3 1299.2,914.3 				"/>
				<polygon class="st0" points="1522.5,1016 1324.7,1015.7 1323.3,914.3 1521.4,914.3 				"/>
				<polygon class="st0" points="1744.2,1016 1546.6,1015.7 1545.5,914.3 1743.3,914.3 				"/>
			</g>
			<g>
				<polygon class="st0" points="1303,1198.2 1105.4,1198.4 1103.8,1097.5 1301.7,1097.4 				"/>
				<polygon class="st0" points="1524.6,1198.1 1327.1,1198.2 1325.8,1097.4 1523.4,1097.3 				"/>
				<polygon class="st0" points="1745.9,1197.9 1548.7,1198.1 1547.5,1097.3 1745,1097.3 				"/>
			</g>
			<g>
				<polygon class="st0" points="1305.5,1379.2 1108.2,1379.4 1106.6,1278.9 1304.1,1278.7 				"/>
				<polygon class="st0" points="1526.7,1378.9 1329.6,1379.1 1328.2,1278.7 1525.5,1278.5 				"/>
				<polygon class="st0" points="1747.7,1378.7 1550.7,1378.9 1549.6,1278.5 1746.7,1278.4 				"/>
			</g>
			<g>
				<polygon class="st0" points="1308,1559.5 1111,1559.8 1109.4,1459.6 1306.6,1459.4 				"/>
				<polygon class="st0" points="1528.8,1559.1 1332,1559.4 1330.6,1459.3 1527.6,1459.1 				"/>
				<polygon class="st0" points="1749.3,1558.8 1552.8,1559.1 1551.6,1459.1 1748.4,1458.8 				"/>
			</g>
			<g>
				<polygon class="st0" points="1310.4,1739.2 1113.8,1739.5 1112.2,1639.7 1309.1,1639.4 				"/>
				<polygon class="st0" points="1530.8,1738.7 1334.4,1739.1 1333,1639.4 1529.7,1639 				"/>
				<polygon class="st0" points="1751,1738.3 1554.8,1738.7 1553.7,1639 1750.1,1638.7 				"/>
			</g>
			<g>
				<polygon class="st0" points="1312.8,1918.2 1116.6,1918.7 1115,1819.2 1311.5,1818.8 				"/>
				<polygon class="st0" points="1532.9,1917.7 1336.8,1918.2 1335.4,1818.8 1531.7,1818.4 				"/>
				<polygon class="st0" points="1752.7,1917.2 1556.8,1917.7 1555.7,1818.3 1751.8,1817.9 				"/>
			</g>
			<g>
				<polygon class="st0" points="1315.3,2096.6 1119.3,2097.2 1117.8,1998.1 1313.9,1997.6 				"/>
				<polygon class="st0" points="1534.9,2096.1 1339.2,2096.6 1337.8,1997.5 1533.8,1997.1 				"/>
				<polygon class="st0" points="1754.4,2095.5 1558.8,2096 1557.7,1997 1753.4,1996.5 				"/>
			</g>
			<g>
				<polygon class="st0" points="1317.7,2274.5 1122.1,2275.1 1120.6,2176.3 1316.4,2175.8 				"/>
				<polygon class="st0" points="1537,2273.8 1341.6,2274.4 1340.2,2175.7 1535.8,2175.1 				"/>
				<polygon class="st0" points="1756,2273.1 1560.8,2273.7 1559.7,2175.1 1755.1,2174.5 				"/>
			</g>
			<g>
				<polygon class="st0" points="1320.1,2451.7 1124.8,2452.4 1123.3,2354 1318.8,2353.3 				"/>
				<polygon class="st0" points="1539,2450.9 1343.9,2451.6 1342.6,2353.2 1537.9,2352.6 				"/>
				<polygon class="st0" points="1757.7,2450.2 1562.8,2450.9 1561.7,2352.5 1756.8,2351.9 				"/>
			</g>
		</g>
		<g>
			
				<ellipse transform="matrix(0.7071 -0.7071 0.7071 0.7071 111.7856 1909.39)" class="st8" cx="2360.7" cy="819.8" rx="289.4" ry="289.4"/>
			<ellipse class="st8" cx="2360.7" cy="819.8" rx="279.8" ry="279.8"/>
			<path class="st9" d="M2102.8,809c-0.1,0-0.1,0-0.2,0c-1.6-0.1-2.9-1.5-2.8-3.1c0.6-11,1.9-22,3.8-32.8c0.3-1.6,1.8-2.7,3.4-2.4
				c1.6,0.3,2.7,1.8,2.4,3.4c-1.9,10.5-3.1,21.3-3.7,32.1C2105.7,807.8,2104.4,809,2102.8,809z"/>
			<path class="st9" d="M2130,706.5c-0.4,0-0.9-0.1-1.3-0.3c-1.5-0.7-2-2.5-1.3-4c44.7-88.6,134.1-143.7,233.3-143.7
				c15.8,0,31.7,1.4,47.1,4.2c1.6,0.3,2.7,1.8,2.4,3.4s-1.8,2.7-3.4,2.4c-15.1-2.8-30.6-4.1-46.1-4.1c-97,0-184.4,53.8-228.1,140.4
				C2132.2,705.9,2131.1,706.5,2130,706.5z"/>
			
				<ellipse transform="matrix(0.7071 -0.7071 0.7071 0.7071 109.2581 1915.48)" class="st10" cx="2366.8" cy="825.9" rx="236.8" ry="236.8"/>
		</g>
		<g>
			<g>
				<g>
					
						<ellipse transform="matrix(0.7071 -0.7071 0.7071 0.7071 155.5982 1891.3878)" class="st8" cx="2360.9" cy="757.9" rx="109" ry="109"/>
					<path class="st8" d="M2469.7,747.8h-108.8h-109c0,0-8.7,62.6,88.6,228.4c4.2,7.2,12,12.6,20.4,12.6s16.2-5.8,20.4-13
						C2478.5,810,2469.7,747.8,2469.7,747.8z"/>
				</g>
				
					<ellipse transform="matrix(0.1602 -0.9871 0.9871 0.1602 1235.3127 2966.8542)" class="st11" cx="2361.2" cy="757.4" rx="63" ry="63"/>
			</g>
		</g>
		<g>
			
				<ellipse transform="matrix(0.7071 -0.7071 0.7071 0.7071 -216.4235 2321.3601)" class="st8" cx="2693.9" cy="1421.9" rx="289.4" ry="289.4"/>
			<ellipse class="st8" cx="2693.9" cy="1421.9" rx="279.8" ry="279.8"/>
			<path class="st9" d="M2436,1411.2c-0.1,0-0.1,0-0.2,0c-1.6-0.1-2.9-1.5-2.8-3.1c0.6-11,1.9-22,3.8-32.8c0.3-1.6,1.8-2.7,3.4-2.4
				c1.6,0.3,2.7,1.8,2.4,3.4c-1.9,10.5-3.1,21.3-3.7,32.1C2438.9,1409.9,2437.6,1411.2,2436,1411.2z"/>
			<path class="st9" d="M2463.2,1308.7c-0.4,0-0.9-0.1-1.3-0.3c-1.5-0.7-2-2.5-1.3-4c44.7-88.6,134.1-143.7,233.3-143.7
				c15.8,0,31.7,1.4,47.1,4.2c1.6,0.3,2.7,1.8,2.4,3.4s-1.8,2.7-3.4,2.4c-15.1-2.8-30.6-4.1-46.1-4.1c-97,0-184.4,53.8-228.1,140.4
				C2465.4,1308.1,2464.3,1308.7,2463.2,1308.7z"/>
			<ellipse class="st10" cx="2700" cy="1428" rx="236.8" ry="236.8"/>
		</g>
		<g>
			<g>
				<path class="st8" d="M2557.6,1373.4l70.7,51c-11.1,16.7-17.8,36-18.4,57.9l-90.2,2.9C2520.9,1443.5,2534.9,1405.1,2557.6,1373.4
					z"/>
				<path class="st8" d="M2679.1,1383.1c-17.3,6.7-32.7,18.1-44.5,32.7l-70.4-51.1c24-30,56-52.7,91.8-64.5L2679.1,1383.1z"/>
				<path class="st8" d="M2769.8,1300.9l-26.3,79.9c-8.9-2.9-18.6-4.4-28.6-4.4c-9,0-17.8,1.2-26.2,3.6l-23-82.6
					c16.6-4.5,33.9-6.6,51.6-6.1C2735.8,1291.7,2753.5,1295.1,2769.8,1300.9z"/>
				<path class="st8" d="M2853,1365.8l-63.7,48.1c-9.4-12.9-22.1-23.2-36.8-29.7l26.2-79.9C2809.2,1317.2,2834.8,1338.8,2853,1365.8
					z"/>
				<path class="st8" d="M2883.4,1473.5l-75.4,2.4c0.6-20.6-4.4-38.5-13.5-54l63.5-48.1C2875,1402.3,2884.4,1436.3,2883.4,1473.5z"
					/>
			</g>
			<polygon class="st8" points="2701.7,1449.6 2757.4,1414.3 2729.3,1475.8 			"/>
			<g>
				<path class="st8" d="M2738.1,1467.7c-0.4,14.7-12.2,27.1-26.5,27.6c-14.4,0.5-25.8-11.2-25.4-26.1c0.4-15,12.5-27.3,26.9-27.6
					C2727.4,1441.2,2738.5,1452.9,2738.1,1467.7z"/>
				<g>
					<path class="st8" d="M2711.9,1484.7c-8.7,0.3-15.6-6.8-15.4-15.9s7.6-16.6,16.3-16.8c8.7-0.2,15.5,6.9,15.2,15.9
						C2727.8,1476.9,2720.6,1484.4,2711.9,1484.7z M2712.7,1455.3c-7,0.2-12.9,6.2-13.1,13.5c-0.2,7.3,5.4,13,12.4,12.8
						c7-0.2,12.8-6.3,13-13.5S2719.7,1455.1,2712.7,1455.3z"/>
				</g>
			</g>
		</g>
		<g>
			
				<ellipse transform="matrix(0.7071 -0.7071 0.7071 0.7071 -53.371 1366.8198)" class="st8" cx="1623.2" cy="747.8" rx="289.4" ry="289.4"/>
			
				<ellipse transform="matrix(0.7071 -0.7071 0.7071 0.7071 -53.371 1366.8198)" class="st8" cx="1623.2" cy="747.8" rx="279.8" ry="279.8"/>
			<path class="st9" d="M1365.3,737.1c-0.1,0-0.1,0-0.2,0c-1.6-0.1-2.9-1.5-2.8-3.1c0.6-11,1.8-22,3.8-32.8c0.3-1.6,1.8-2.7,3.4-2.4
				c1.6,0.3,2.7,1.8,2.4,3.4c-1.9,10.5-3.2,21.3-3.7,32.1C1368.2,735.9,1366.9,737.1,1365.3,737.1z"/>
			<path class="st9" d="M1392.5,634.6c-0.4,0-0.9-0.1-1.3-0.3c-1.5-0.7-2-2.5-1.3-4c44.7-88.6,134.1-143.7,233.3-143.7
				c15.8,0,31.7,1.4,47.1,4.2c1.6,0.3,2.7,1.8,2.4,3.4c-0.3,1.6-1.8,2.7-3.4,2.4c-15.1-2.8-30.6-4.1-46.1-4.1
				c-97,0-184.3,53.8-228.1,140.4C1394.6,634,1393.6,634.6,1392.5,634.6z"/>
			
				<ellipse transform="matrix(0.7071 -0.7071 0.7071 0.7071 -55.9014 1372.9169)" class="st10" cx="1629.3" cy="753.9" rx="236.8" ry="236.8"/>
		</g>
		<g>
			<polygon class="st8" points="1709.2,865 1748.5,865.5 1748.5,649.2 1709.2,648.3 			"/>
			<polygon class="st8" points="1638.8,864.1 1678.5,864.6 1678.5,756.1 1638.8,755.4 			"/>
			<polygon class="st8" points="1568,863.3 1607.9,863.8 1607.9,625.2 1568,624.2 			"/>
			<polygon class="st8" points="1496.6,862.4 1536.8,862.9 1536.8,658.9 1496.6,658 			"/>
		</g>
		<g>
			<g>
				<g>
					<path class="st8" d="M1799.7,1637.1c67.5-59.3,170.7-52.6,229.9,15c3.7,4.2,7.1,8.5,10.2,13c4.2,6,12.9,6.5,17.6,0.9l15.5-18.3
						c3.4-4,3.5-9.8,0.3-14c-3-4-6.1-7.8-9.4-11.6c-75.8-86.4-207.7-94.9-294.1-19.2c-6.5,5.7-12.6,11.8-18.2,18.2
						c-4.2,4.8-3.7,12.1,1.3,16.1l18.2,14.7c4.6,3.7,11.3,3.2,15.2-1.2C1790.2,1645.9,1794.8,1641.4,1799.7,1637.1z"/>
					<path class="st8" d="M1722.2,1548.8c116.2-102,293.7-90.4,395.7,25.8c0,0,0.1,0.1,0.1,0.1c4.5,5.1,12.4,5.1,16.7,0l15.2-17.9
						c0-5.6-0.1-9.1-0.1-14.7c-118.9-132.6-323.4-145.1-457.6-27.3c-11.7,10.3-22.4,21.2-32.3,32.8c-4,4.7-3.2,11.8,1.6,15.7
						l18.1,14.7c4.6,3.7,11.4,3.2,15.3-1.3C1703.2,1566.8,1712.2,1557.5,1722.2,1548.8z"/>
					<path class="st8" d="M1644.7,1460.6c160.6-140.9,403.7-129,549.9,24.1c4.6,4.8,12.3,4.7,16.6-0.4l15.1-17.8
						c3.7-4.3,3.5-10.8-0.4-14.9c-163.1-169-432.8-181.7-611.1-25.2c-16.8,14.7-32,30.4-46,47c-4,4.7-3.2,11.8,1.6,15.7l18.1,14.7
						c4.7,3.8,11.6,3.1,15.5-1.6C1616.2,1487.6,1629.8,1473.6,1644.7,1460.6z"/>
				</g>
			</g>
			<ellipse class="st8" cx="1912.8" cy="1726.9" rx="76.1" ry="76.1"/>
		</g>
		<g>
			<g>
				<g>
					<path class="st0" d="M1816.6,1623.6c67.5-59.3,170.7-52.6,229.9,15c3.7,4.2,7.1,8.5,10.2,13c4.2,6,12.9,6.5,17.6,0.9l15.5-18.3
						c3.4-4,3.5-9.8,0.3-14c-3-4-6.1-7.8-9.4-11.6c-75.8-86.4-207.7-94.9-294.1-19.2c-6.5,5.7-12.6,11.8-18.2,18.2
						c-4.2,4.8-3.7,12.1,1.3,16.1l18.2,14.7c4.6,3.7,11.3,3.2,15.2-1.2C1807.2,1632.4,1811.7,1627.9,1816.6,1623.6z"/>
					<path class="st0" d="M1739.1,1535.3c116.2-102,293.7-90.4,395.7,25.8c0,0,0.1,0.1,0.1,0.1c4.5,5.1,12.4,5.1,16.7,0l15.2-17.9
						c0-5.6-0.1-9.1-0.1-14.7c-118.9-132.6-323.4-145.1-457.6-27.3c-11.7,10.3-22.4,21.2-32.3,32.8c-4,4.7-3.2,11.8,1.6,15.7
						l18.1,14.7c4.6,3.7,11.4,3.2,15.3-1.3C1720.1,1553.3,1729.2,1544,1739.1,1535.3z"/>
					<path class="st0" d="M1661.6,1447c160.6-140.9,403.7-129,549.9,24.1c4.6,4.8,12.3,4.7,16.6-0.4l15.1-17.8
						c3.7-4.3,3.5-10.8-0.4-14.9c-163.1-169-432.8-181.7-611.1-25.2c-16.8,14.7-32,30.4-46,47c-4,4.7-3.2,11.8,1.6,15.7l18.1,14.7
						c4.7,3.8,11.6,3.1,15.5-1.6C1633.1,1474,1646.7,1460.1,1661.6,1447z"/>
				</g>
			</g>
			<ellipse class="st0" cx="1929.7" cy="1713.4" rx="76.1" ry="76.1"/>
		</g>
		<path class="st12" d="M694.8,1374.5c-19.2,4.2-38.7,12.7-46.8,24.3c-36.6,52.1,7.7,133.4,21.2,185.8c23.1,90,25.8,186-2.5,275.1
			c-30.8,96.6-52.7,192.5-49.2,294.7c1.8,52.7,12,109.4,42.1,154.1c56.9,84.5,222.1,55.9,260.7-29.5
			c30.8-68.2,27.7-145.7,15.7-217.7c-20.2-121.2-59.7-238.1-80.7-359.1c-16-92.5,9.5-271.6-93.5-321
			C742.9,1372.1,715.1,1370,694.8,1374.5z"/>
		<path class="st7" d="M752.9,2503.7c-0.5,0-1-0.1-1.5-0.2c-2.7-0.9-4.1-3.7-3.3-6.4c95.9-299.6,78.3-578.3,46.7-759.4
			c-34.3-196.2-91.9-323-92.5-324.2c-1.2-2.6,0-5.6,2.5-6.7c2.5-1.2,5.6-0.1,6.7,2.5c0.6,1.3,58.7,129.2,93.2,326.7
			c31.8,182.2,49.5,462.7-47,764.3C757,2502.3,755,2503.7,752.9,2503.7z"/>
		<path class="st7" d="M682.8,2259.5c-7.1-51.1-41.6-102-65.8-151.1c-12.8-26-23.1-52.5-26.8-81.3c-3.8-28.7,0.3-62.2-19.7-85.9
			c-40.3-47.9-89.7-6-110,45.1c-23.5,59.3-10.5,140.9-6.9,205.6c2.2,39,0.2,80.3,6.7,118.8c10.7,63.8,37.3,102.4,75.3,122.5
			c36.5,19.3,81.2,12.2,110-17.2C671.6,2389.2,694.3,2342,682.8,2259.5z"/>
		<path class="st3" d="M619.6,2528.4c-1.9,0-3.7-1.1-4.6-2.8c-1.4-2.8-138.1-285.6-112.5-552.8c0.3-2.8,2.7-4.8,5.5-4.6
			c2.8,0.3,4.8,2.7,4.6,5.5c-25.3,264.4,110.2,544.6,111.5,547.4c1.2,2.5,0.2,5.6-2.3,6.8C621.1,2528.2,620.4,2528.4,619.6,2528.4z"
			/>
		<g>
			<path class="st13" d="M1262.1,2823.6c0-62.9-51-113.9-113.9-113.9H1102c-62.9,0-113.9,51-113.9,113.9v303.2
				c0,62.9,51,113.9,113.9,113.9h46.2c62.9,0,113.9-51,113.9-113.9V2823.6z"/>
			<path class="st13" d="M2824.8,2823.6c0-62.9-51-113.9-113.9-113.9h-46.2c-62.9,0-113.9,51-113.9,113.9v303.2
				c0,62.9,51,113.9,113.9,113.9h46.2c62.9,0,113.9-51,113.9-113.9V2823.6z"/>
		</g>
		<g>
			<path class="st14" d="M1137.8,2255.1c-3.4-0.8-7.6-3.8-7.6-7.3v-23.4c0-22.6-11-43.2-31.1-53.3c-26-13.1-55.7-13.6-82-1.2
				l-48.5,22.7c-23.1,10.8-37.9,34-37.9,59.5v17.9c0,32.9,24.7,60.7,57.2,65.1l199.7,27.2l23.9-90.9L1137.8,2255.1z"/>
			<path class="st14" d="M2690.4,2255.1c3.4-0.8,2.5-3.8,2.5-7.3v-23.4c0-22.6,16.1-43.2,36.2-53.3c26-13.1,58.2-13.6,84.6-1.2
				l48.1,22.7c23.1,10.8,37.5,34,37.5,59.5v17.9c0,32.9-23,60.7-55.6,65.1l-198.8,27.2l-26-90.9L2690.4,2255.1z"/>
		</g>
		<path class="st8" d="M2839.5,2455.9c-28.9-97.5-178.1-189.3-178.1-189.3S2536.3,1881,2401.6,1881c-108.2,0-368.1,0-466.3,0
			c0,0-14.4,0-38.5,0c-98.3,0-358.6,0-466.9,0c-134.8,0-259.9,385.7-259.9,385.7s-149.2,91-178.1,188.5
			c-21.1,71.3,24.7,344.3,50.8,485.8c9.2,49.9,56.3,86.8,111.2,86.8h742.8h38.5h742.2c54.9,0,102-36.5,111.2-86.4
			C2814.9,2799.8,2860.6,2527.2,2839.5,2455.9z"/>
		<path class="st14" d="M2820.8,2865c-8.4-9.6-21.2-16.6-34.8-16.6H1045.4c-13.5,0-26.2,6.9-34.6,16.4c-8.4,9.5-11.6,22.6-8.6,34.5
			l28.5,111.9c4.6,18.2,22.5,29.9,43.2,29.9h1682.2c20.5,0,38.3-11.1,43.1-29.1l29.9-113.1C2832.3,2887.1,2829.2,2874.6,2820.8,2865
			z"/>
		<g>
			<path class="st15" d="M1445.6,2689.8c0,0-43.3-129.9-97.9-141.2c-54.6-11.2-285.6-59.4-290.4-19.2
				c-4.8,40.1-51.3,178.1,86.6,190.9C1282,2733.1,1467.9,2743.7,1445.6,2689.8z"/>
			<path class="st15" d="M2385.8,2689.8c0,0,43.3-129.9,97.9-141.2c54.6-11.2,285.6-59.4,290.4-19.2c4.8,40.1,51.3,178.1-86.6,190.9
				C2549.5,2733.1,2363.6,2743.7,2385.8,2689.8z"/>
		</g>
		<path class="st14" d="M2354.7,2577.1c-4.5-6.9-12.1-12.9-20.4-12.9h-837.2c-8.5,0-16.4,6.3-20.8,13.6c-4.4,7.3-4.6,17.3-0.7,24.8
			l47.1,89.8c17.5,33,51.7,54.5,89,54.5H2227c39.8,0,75.9-23.9,92.1-60.2l37.5-85.3C2359.9,2593.9,2359.2,2584,2354.7,2577.1z"/>
		<path class="st15" d="M2582.7,2300.1c-5.4,8.3-14.7,13.9-24.6,13.9H1273.4c-10.1,0-19.4-5.7-24.8-14.3c-5.4-8.5-6.1-19.5-1.7-28.6
			c29.2-61.5,83.9-175.4,114.6-239.1c1.4-2.9,2.9-5.5,4.7-8.2c14.8-23.5,40.9-38,69.1-38h971.5c28.5,0,54.7,14.6,69.4,38.4
			c2.1,3.4,3.9,6.8,5.5,10.4L2585,2272C2589,2281.1,2588.1,2291.7,2582.7,2300.1z"/>
		<path class="st16" d="M2476.1,2024.2c-68.1,13.4-268,46.8-569.7,46.8c-304.1,0-482.6-34-540.4-47.2c14.8-23.5,40.9-37.9,69.1-37.9
			h971.5C2435.2,1985.8,2461.3,2000.5,2476.1,2024.2z"/>
		<g>
			<g>
				<path class="st16" d="M1424.9,2513c-1.2,0-2.4-0.4-3.3-1.3l-166.5-157.6c-1.9-1.8-2-4.9-0.2-6.8c1.8-1.9,4.9-2,6.8-0.2
					l166.5,157.6c1.9,1.8,2,4.9,0.2,6.8C1427.5,2512.5,1426.2,2513,1424.9,2513z"/>
			</g>
			<g>
				<path class="st16" d="M2394.3,2513c-1.3,0-2.6-0.5-3.5-1.5c-1.8-1.9-1.7-5,0.2-6.8l166.5-157.6c1.9-1.8,5-1.7,6.8,0.2
					s1.7,5-0.2,6.8l-166.5,157.6C2396.7,2512.6,2395.5,2513,2394.3,2513z"/>
			</g>
		</g>
		<g>
			<g>
				
					<ellipse transform="matrix(0.7071 -0.7071 0.7071 0.7071 -873.2161 1949.1234)" class="st17" cx="1916.2" cy="2028.6" rx="33.8" ry="33.8"/>
			</g>
		</g>
		<g>
			<ellipse class="st8" cx="1110.5" cy="1265.6" rx="289.4" ry="289.4"/>
			<ellipse class="st8" cx="1110.5" cy="1265.6" rx="279.8" ry="279.8"/>
			<path class="st9" d="M852.6,1254.9c0,0-0.1,0-0.2,0c-1.6-0.1-2.9-1.5-2.8-3.1c0.6-11,1.8-22,3.8-32.8c0.3-1.6,1.8-2.7,3.4-2.4
				s2.7,1.8,2.4,3.4c-1.9,10.5-3.2,21.3-3.7,32.1C855.5,1253.6,854.2,1254.9,852.6,1254.9z"/>
			<path class="st9" d="M879.8,1152.3c-0.5,0-0.9-0.1-1.3-0.3c-1.5-0.7-2-2.5-1.3-4c44.7-88.6,134.1-143.7,233.3-143.7
				c15.8,0,31.7,1.4,47.1,4.2c1.6,0.3,2.7,1.8,2.4,3.4s-1.8,2.7-3.4,2.4c-15.1-2.8-30.6-4.1-46.1-4.1c-97,0-184.3,53.8-228.1,140.4
				C882,1151.7,880.9,1152.3,879.8,1152.3z"/>
			<ellipse class="st10" cx="1116.6" cy="1271.7" rx="236.8" ry="236.8"/>
		</g>
		<g>
			<g>
				
					<rect x="1116.1" y="1198.5" transform="matrix(0.678 -0.7351 0.7351 0.678 -518.2529 1233.2566)" class="st8" width="64.8" height="19.2"/>
				
					<rect x="1035.2" y="1286.2" transform="matrix(0.6779 -0.7351 0.7351 0.6779 -608.7388 1202.1797)" class="st8" width="64.7" height="19.2"/>
			</g>
			<g>
				<g>
					<g>
						
							<rect x="1233.6" y="1113.4" transform="matrix(0.6779 -0.7351 0.7351 0.6779 -429.7045 1287.177)" class="st8" width="41.1" height="41.1"/>
						
							<rect x="1198.3" y="1080.9" transform="matrix(0.678 -0.7351 0.7351 0.678 -417.1757 1250.6705)" class="st8" width="41.1" height="41.1"/>
					</g>
					<g>
						
							<rect x="1199.4" y="1150.3" transform="matrix(0.678 -0.7351 0.7351 0.678 -467.815 1273.7786)" class="st8" width="41.1" height="41.1"/>
						
							<rect x="1164.4" y="1118" transform="matrix(0.6779 -0.7351 0.7351 0.6779 -455.3455 1237.7632)" class="st8" width="41.1" height="41.1"/>
					</g>
					<g>
						
							<rect x="1165.4" y="1187.3" transform="matrix(0.6779 -0.7351 0.7351 0.6779 -505.9841 1260.8667)" class="st8" width="41.1" height="41.1"/>
						
							<rect x="1130.2" y="1154.8" transform="matrix(0.678 -0.7351 0.7351 0.678 -493.4445 1224.3641)" class="st8" width="41.1" height="41.1"/>
					</g>
				</g>
				<g>
					<g>
						
							<rect x="1049.9" y="1312.7" transform="matrix(0.6779 -0.7351 0.7351 0.6779 -635.3315 1216.2762)" class="st8" width="41.1" height="41.1"/>
						
							<rect x="1014.7" y="1280.3" transform="matrix(0.6779 -0.7351 0.7351 0.6779 -622.8245 1180.011)" class="st8" width="41.1" height="41.1"/>
					</g>
					<g>
						
							<rect x="1015.8" y="1349.6" transform="matrix(0.6779 -0.7351 0.7351 0.6779 -673.4763 1203.1266)" class="st8" width="41.1" height="41.1"/>
						
							<rect x="980.5" y="1317.1" transform="matrix(0.678 -0.7351 0.7351 0.678 -660.8999 1166.6259)" class="st8" width="41.1" height="41.1"/>
					</g>
					<g>
						
							<rect x="981.6" y="1386.4" transform="matrix(0.678 -0.7351 0.7351 0.678 -711.5388 1189.7272)" class="st8" width="41.1" height="41.1"/>
						
							<rect x="946.6" y="1354.2" transform="matrix(0.6779 -0.7351 0.7351 0.6779 -699.1185 1153.7069)" class="st8" width="41.1" height="41.1"/>
					</g>
				</g>
			</g>
			
				<rect x="1046.4" y="1142.6" transform="matrix(0.678 -0.7351 0.7351 0.678 -557.7543 1201.0702)" class="st8" width="91.3" height="189.1"/>
			<path class="st8" d="M1173.2,1312.1c-21.1,22.9-19.7,58.5,3.2,79.6l76.4-82.8C1230,1287.8,1194.3,1289.2,1173.2,1312.1z"/>
			
				<rect x="1210.2" y="1319.3" transform="matrix(0.6779 -0.7351 0.7351 0.6779 -601.5276 1328.1481)" class="st8" width="9.5" height="62.6"/>
			<path class="st8" d="M1230.9,1382.9c-5.2-4.8-5.6-13-0.7-18.3s13-5.6,18.3-0.7s5.6,13,0.7,18.3
				C1244.3,1387.4,1236.2,1387.7,1230.9,1382.9z"/>
		</g>
	</g>
</g>
</svg>
