<svg width="93" height="24" viewBox="0 0 93 24" fill="none" xmlns="http://www.w3.org/2000/svg">
<rect width="93" height="24" rx="9" fill="#2ECC71" fill-opacity="0.2"/>
<path d="M19.35 17L23.144 7.2H24.684L28.45 17H26.84L24.6 11.092C24.572 11.0267 24.516 10.868 24.432 10.616C24.3573 10.364 24.2687 10.084 24.166 9.776C24.0633 9.468 23.97 9.188 23.886 8.936C23.802 8.67467 23.746 8.50667 23.718 8.432L24.04 8.418C23.984 8.57667 23.914 8.77733 23.83 9.02C23.7553 9.26267 23.6713 9.51933 23.578 9.79C23.494 10.0607 23.41 10.3173 23.326 10.56C23.242 10.7933 23.172 10.9893 23.116 11.148L20.89 17H19.35ZM21.03 14.564L21.59 13.108H26.042L26.686 14.564H21.03ZM29.8387 17V6.64H31.2807V17H29.8387ZM33.3524 17V6.64H34.7944V17H33.3524ZM44.0519 20.22C43.5292 20.22 43.0066 20.136 42.4839 19.968C41.9706 19.8093 41.5552 19.5993 41.2379 19.338L41.7699 18.218C41.9566 18.358 42.1759 18.4793 42.4279 18.582C42.6799 18.694 42.9459 18.778 43.2259 18.834C43.5059 18.8993 43.7812 18.932 44.0519 18.932C44.5652 18.932 44.9946 18.848 45.3399 18.68C45.6852 18.512 45.9466 18.2647 46.1239 17.938C46.3012 17.6113 46.3899 17.2053 46.3899 16.72V15.306L46.5439 15.404C46.4972 15.6933 46.3432 15.9733 46.0819 16.244C45.8299 16.5053 45.5126 16.72 45.1299 16.888C44.7472 17.056 44.3552 17.14 43.9539 17.14C43.2539 17.14 42.6286 16.9767 42.0779 16.65C41.5366 16.314 41.1072 15.8613 40.7899 15.292C40.4726 14.7133 40.3139 14.0553 40.3139 13.318C40.3139 12.5807 40.4679 11.9273 40.7759 11.358C41.0932 10.7793 41.5226 10.3267 42.0639 10C42.6146 9.664 43.2306 9.496 43.9119 9.496C44.1919 9.496 44.4626 9.53333 44.7239 9.608C44.9852 9.67333 45.2279 9.77133 45.4519 9.902C45.6759 10.0233 45.8766 10.1587 46.0539 10.308C46.2312 10.4573 46.3759 10.616 46.4879 10.784C46.5999 10.952 46.6699 11.1107 46.6979 11.26L46.3899 11.372V9.65H47.8319V16.552C47.8319 17.14 47.7432 17.658 47.5659 18.106C47.3979 18.5633 47.1506 18.946 46.8239 19.254C46.4972 19.5713 46.1006 19.8093 45.6339 19.968C45.1672 20.136 44.6399 20.22 44.0519 20.22ZM44.1079 15.81C44.5652 15.81 44.9712 15.7027 45.3259 15.488C45.6806 15.2733 45.9559 14.9793 46.1519 14.606C46.3479 14.2327 46.4459 13.8033 46.4459 13.318C46.4459 12.8327 46.3432 12.4033 46.1379 12.03C45.9419 11.6473 45.6666 11.3487 45.3119 11.134C44.9666 10.9193 44.5652 10.812 44.1079 10.812C43.6599 10.812 43.2586 10.924 42.9039 11.148C42.5586 11.3627 42.2832 11.6613 42.0779 12.044C41.8819 12.4173 41.7839 12.842 41.7839 13.318C41.7839 13.794 41.8819 14.2233 42.0779 14.606C42.2832 14.9793 42.5586 15.2733 42.9039 15.488C43.2586 15.7027 43.6599 15.81 44.1079 15.81ZM53.1577 17.14C52.439 17.14 51.795 16.9767 51.2257 16.65C50.6657 16.314 50.2224 15.8613 49.8957 15.292C49.569 14.7133 49.4057 14.0553 49.4057 13.318C49.4057 12.5807 49.569 11.9273 49.8957 11.358C50.2224 10.7793 50.6657 10.3267 51.2257 10C51.795 9.664 52.439 9.496 53.1577 9.496C53.867 9.496 54.5017 9.664 55.0617 10C55.631 10.3267 56.079 10.7793 56.4057 11.358C56.7324 11.9273 56.8957 12.5807 56.8957 13.318C56.8957 14.0553 56.7324 14.7133 56.4057 15.292C56.079 15.8613 55.631 16.314 55.0617 16.65C54.5017 16.9767 53.867 17.14 53.1577 17.14ZM53.1577 15.824C53.5964 15.824 53.9884 15.7167 54.3337 15.502C54.679 15.278 54.9497 14.9793 55.1457 14.606C55.3417 14.2233 55.435 13.794 55.4257 13.318C55.435 12.8327 55.3417 12.4033 55.1457 12.03C54.9497 11.6473 54.679 11.3487 54.3337 11.134C53.9884 10.9193 53.5964 10.812 53.1577 10.812C52.719 10.812 52.3224 10.924 51.9677 11.148C51.6224 11.3627 51.3517 11.6613 51.1557 12.044C50.9597 12.4173 50.8664 12.842 50.8757 13.318C50.8664 13.794 50.9597 14.2233 51.1557 14.606C51.3517 14.9793 51.6224 15.278 51.9677 15.502C52.3224 15.7167 52.719 15.824 53.1577 15.824ZM61.771 17.14C61.0523 17.14 60.4083 16.9767 59.839 16.65C59.279 16.314 58.8357 15.8613 58.509 15.292C58.1823 14.7133 58.019 14.0553 58.019 13.318C58.019 12.5807 58.1823 11.9273 58.509 11.358C58.8357 10.7793 59.279 10.3267 59.839 10C60.4083 9.664 61.0523 9.496 61.771 9.496C62.4803 9.496 63.115 9.664 63.675 10C64.2443 10.3267 64.6923 10.7793 65.019 11.358C65.3457 11.9273 65.509 12.5807 65.509 13.318C65.509 14.0553 65.3457 14.7133 65.019 15.292C64.6923 15.8613 64.2443 16.314 63.675 16.65C63.115 16.9767 62.4803 17.14 61.771 17.14ZM61.771 15.824C62.2097 15.824 62.6017 15.7167 62.947 15.502C63.2923 15.278 63.563 14.9793 63.759 14.606C63.955 14.2233 64.0483 13.794 64.039 13.318C64.0483 12.8327 63.955 12.4033 63.759 12.03C63.563 11.6473 63.2923 11.3487 62.947 11.134C62.6017 10.9193 62.2097 10.812 61.771 10.812C61.3323 10.812 60.9357 10.924 60.581 11.148C60.2357 11.3627 59.965 11.6613 59.769 12.044C59.573 12.4173 59.4797 12.842 59.489 13.318C59.4797 13.794 59.573 14.2233 59.769 14.606C59.965 14.9793 60.2357 15.278 60.581 15.502C60.9357 15.7167 61.3323 15.824 61.771 15.824ZM70.1463 17.14C69.4743 17.14 68.8723 16.9767 68.3403 16.65C67.8176 16.314 67.4023 15.8613 67.0943 15.292C66.7863 14.7133 66.6323 14.0553 66.6323 13.318C66.6323 12.5807 66.7816 11.9273 67.0803 11.358C67.3883 10.7793 67.8036 10.3267 68.3263 10C68.8489 9.664 69.4416 9.496 70.1043 9.496C70.4683 9.496 70.8183 9.55667 71.1543 9.678C71.4996 9.79 71.8076 9.94867 72.0783 10.154C72.3489 10.35 72.5589 10.5693 72.7083 10.812C72.8669 11.0453 72.9463 11.2833 72.9463 11.526L72.5263 11.554V6.64H73.9683V17H72.5263V15.25H72.8063C72.8063 15.474 72.7316 15.698 72.5823 15.922C72.4329 16.1367 72.2323 16.3373 71.9803 16.524C71.7376 16.7107 71.4529 16.86 71.1263 16.972C70.8089 17.084 70.4823 17.14 70.1463 17.14ZM70.3423 15.894C70.7809 15.894 71.1683 15.782 71.5043 15.558C71.8403 15.334 72.1016 15.0307 72.2883 14.648C72.4843 14.256 72.5823 13.8127 72.5823 13.318C72.5823 12.8233 72.4843 12.3847 72.2883 12.002C72.1016 11.61 71.8403 11.302 71.5043 11.078C71.1683 10.854 70.7809 10.742 70.3423 10.742C69.9036 10.742 69.5163 10.854 69.1803 11.078C68.8443 11.302 68.5783 11.61 68.3823 12.002C68.1956 12.3847 68.1023 12.8233 68.1023 13.318C68.1023 13.8127 68.1956 14.256 68.3823 14.648C68.5783 15.0307 68.8443 15.334 69.1803 15.558C69.5163 15.782 69.9036 15.894 70.3423 15.894Z" fill="#27AE60"/>
</svg>
