<svg width="155" height="24" viewBox="0 0 155 24" fill="none" xmlns="http://www.w3.org/2000/svg">
<rect width="155" height="24" rx="9" fill="#E74C3C" fill-opacity="0.2"/>
<path d="M12.372 17V7.2H16.208C16.908 7.2 17.538 7.31667 18.098 7.55C18.6673 7.78333 19.1527 8.11933 19.554 8.558C19.9553 8.99667 20.2633 9.51467 20.478 10.112C20.6927 10.7093 20.8 11.372 20.8 12.1C20.8 12.828 20.6927 13.4953 20.478 14.102C20.2633 14.6993 19.9553 15.2173 19.554 15.656C19.162 16.0853 18.6813 16.4167 18.112 16.65C17.5427 16.8833 16.908 17 16.208 17H12.372ZM13.884 15.698L13.842 15.544H16.138C16.6327 15.544 17.0713 15.4647 17.454 15.306C17.846 15.1473 18.1727 14.9233 18.434 14.634C18.7047 14.3353 18.91 13.9713 19.05 13.542C19.19 13.1127 19.26 12.632 19.26 12.1C19.26 11.568 19.19 11.092 19.05 10.672C18.91 10.2427 18.7047 9.87867 18.434 9.58C18.1633 9.28133 17.8367 9.05267 17.454 8.894C17.0713 8.73533 16.6327 8.656 16.138 8.656H13.8L13.884 8.53V15.698ZM25.7847 17.14C25.066 17.14 24.422 16.9767 23.8527 16.65C23.2927 16.314 22.8493 15.8613 22.5227 15.292C22.196 14.7133 22.0327 14.0553 22.0327 13.318C22.0327 12.5807 22.196 11.9273 22.5227 11.358C22.8493 10.7793 23.2927 10.3267 23.8527 10C24.422 9.664 25.066 9.496 25.7847 9.496C26.494 9.496 27.1287 9.664 27.6887 10C28.258 10.3267 28.706 10.7793 29.0327 11.358C29.3593 11.9273 29.5227 12.5807 29.5227 13.318C29.5227 14.0553 29.3593 14.7133 29.0327 15.292C28.706 15.8613 28.258 16.314 27.6887 16.65C27.1287 16.9767 26.494 17.14 25.7847 17.14ZM25.7847 15.824C26.2233 15.824 26.6153 15.7167 26.9607 15.502C27.306 15.278 27.5767 14.9793 27.7727 14.606C27.9687 14.2233 28.062 13.794 28.0527 13.318C28.062 12.8327 27.9687 12.4033 27.7727 12.03C27.5767 11.6473 27.306 11.3487 26.9607 11.134C26.6153 10.9193 26.2233 10.812 25.7847 10.812C25.346 10.812 24.9493 10.924 24.5947 11.148C24.2493 11.3627 23.9787 11.6613 23.7827 12.044C23.5867 12.4173 23.4933 12.842 23.5027 13.318C23.4933 13.794 23.5867 14.2233 23.7827 14.606C23.9787 14.9793 24.2493 15.278 24.5947 15.502C24.9493 15.7167 25.346 15.824 25.7847 15.824ZM34.2159 17.14C33.5346 17.14 32.9233 16.972 32.3819 16.636C31.8499 16.3 31.4253 15.8427 31.1079 15.264C30.7999 14.6853 30.6459 14.0367 30.6459 13.318C30.6459 12.5993 30.7999 11.9507 31.1079 11.372C31.4253 10.7933 31.8499 10.336 32.3819 10C32.9233 9.664 33.5346 9.496 34.2159 9.496C34.8693 9.496 35.4619 9.63133 35.9939 9.902C36.5353 10.1633 36.9459 10.5227 37.2259 10.98L36.4279 11.96C36.2786 11.7453 36.0873 11.5493 35.8539 11.372C35.6206 11.1947 35.3733 11.0547 35.1119 10.952C34.8506 10.8493 34.5986 10.798 34.3559 10.798C33.9079 10.798 33.5066 10.91 33.1519 11.134C32.8066 11.3487 32.5313 11.6473 32.3259 12.03C32.1206 12.4127 32.0179 12.842 32.0179 13.318C32.0179 13.794 32.1253 14.2233 32.3399 14.606C32.5546 14.9793 32.8393 15.278 33.1939 15.502C33.5486 15.726 33.9406 15.838 34.3699 15.838C34.6219 15.838 34.8646 15.796 35.0979 15.712C35.3406 15.628 35.5739 15.502 35.7979 15.334C36.0219 15.166 36.2319 14.9607 36.4279 14.718L37.2259 15.698C36.9273 16.118 36.4979 16.4633 35.9379 16.734C35.3873 17.0047 34.8133 17.14 34.2159 17.14ZM41.1621 17.14C40.6395 17.14 40.1821 17.0187 39.7901 16.776C39.4075 16.5333 39.1088 16.1927 38.8941 15.754C38.6888 15.3153 38.5861 14.7927 38.5861 14.186V9.65H40.0281V13.794C40.0281 14.2233 40.0935 14.5967 40.2241 14.914C40.3641 15.222 40.5601 15.46 40.8121 15.628C41.0735 15.796 41.3861 15.88 41.7501 15.88C42.0208 15.88 42.2681 15.838 42.4921 15.754C42.7161 15.6607 42.9075 15.5347 43.0661 15.376C43.2341 15.2173 43.3648 15.026 43.4581 14.802C43.5515 14.578 43.5981 14.3353 43.5981 14.074V9.65H45.0401V17H43.5981V15.46L43.8501 15.292C43.7381 15.6373 43.5468 15.95 43.2761 16.23C43.0148 16.51 42.7021 16.734 42.3381 16.902C41.9741 17.0607 41.5821 17.14 41.1621 17.14ZM47.0347 17V9.65H48.4907V11.218L48.2247 11.386C48.2994 11.1433 48.416 10.91 48.5747 10.686C48.7427 10.462 48.9434 10.266 49.1767 10.098C49.4194 9.92067 49.676 9.78067 49.9467 9.678C50.2267 9.57533 50.5114 9.524 50.8007 9.524C51.2207 9.524 51.5894 9.594 51.9067 9.734C52.224 9.874 52.4854 10.084 52.6907 10.364C52.896 10.644 53.0454 10.994 53.1387 11.414L52.9147 11.358L53.0127 11.12C53.1154 10.9053 53.2554 10.7047 53.4327 10.518C53.6194 10.322 53.8294 10.1493 54.0627 10C54.296 9.85067 54.5434 9.734 54.8047 9.65C55.066 9.566 55.3227 9.524 55.5747 9.524C56.1254 9.524 56.578 9.636 56.9327 9.86C57.2967 10.084 57.5674 10.4247 57.7447 10.882C57.9314 11.3393 58.0247 11.9087 58.0247 12.59V17H56.5687V12.674C56.5687 12.254 56.5127 11.9133 56.4007 11.652C56.298 11.3813 56.1394 11.1807 55.9247 11.05C55.71 10.9193 55.4347 10.854 55.0987 10.854C54.8374 10.854 54.59 10.9007 54.3567 10.994C54.1327 11.078 53.9367 11.1993 53.7687 11.358C53.6007 11.5167 53.47 11.7033 53.3767 11.918C53.2834 12.1233 53.2367 12.352 53.2367 12.604V17H51.7807V12.646C51.7807 12.2633 51.7247 11.9413 51.6127 11.68C51.5007 11.4093 51.3374 11.204 51.1227 11.064C50.908 10.924 50.6467 10.854 50.3387 10.854C50.0774 10.854 49.8347 10.9007 49.6107 10.994C49.3867 11.078 49.1907 11.1993 49.0227 11.358C48.8547 11.5073 48.724 11.6893 48.6307 11.904C48.5374 12.1093 48.4907 12.3333 48.4907 12.576V17H47.0347ZM63.3853 17.14C62.6293 17.14 61.9573 16.9813 61.3693 16.664C60.7906 16.3373 60.3333 15.894 59.9973 15.334C59.6706 14.774 59.5073 14.13 59.5073 13.402C59.5073 12.8233 59.6006 12.296 59.7873 11.82C59.9739 11.344 60.2306 10.9333 60.5573 10.588C60.8933 10.2333 61.2899 9.96267 61.7473 9.776C62.2139 9.58 62.7179 9.482 63.2593 9.482C63.7353 9.482 64.1786 9.57533 64.5893 9.762C64.9999 9.93933 65.3546 10.1867 65.6533 10.504C65.9613 10.8213 66.1946 11.1993 66.3533 11.638C66.5213 12.0673 66.6006 12.5387 66.5913 13.052L66.5773 13.668H60.5713L60.2493 12.52H65.3313L65.1213 12.758V12.422C65.0933 12.114 64.9906 11.8387 64.8133 11.596C64.6359 11.3533 64.4119 11.162 64.1413 11.022C63.8706 10.882 63.5766 10.812 63.2593 10.812C62.7553 10.812 62.3306 10.91 61.9853 11.106C61.6399 11.2927 61.3786 11.5727 61.2013 11.946C61.0239 12.31 60.9353 12.7627 60.9353 13.304C60.9353 13.8173 61.0426 14.2653 61.2573 14.648C61.4719 15.0213 61.7753 15.3107 62.1673 15.516C62.5593 15.7213 63.0119 15.824 63.5253 15.824C63.8893 15.824 64.2253 15.7633 64.5333 15.642C64.8506 15.5207 65.1913 15.3013 65.5553 14.984L66.2833 16.006C66.0593 16.23 65.7839 16.426 65.4573 16.594C65.1399 16.762 64.7993 16.8973 64.4353 17C64.0806 17.0933 63.7306 17.14 63.3853 17.14ZM68.1584 17V9.65H69.6004V11.162L69.3484 11.33C69.4417 11.0033 69.6237 10.7047 69.8944 10.434C70.1651 10.154 70.4871 9.93 70.8604 9.762C71.2337 9.58467 71.6164 9.496 72.0084 9.496C72.5684 9.496 73.0351 9.608 73.4084 9.832C73.7817 10.0467 74.0617 10.378 74.2484 10.826C74.4351 11.274 74.5284 11.8387 74.5284 12.52V17H73.0864V12.618C73.0864 12.198 73.0304 11.8527 72.9184 11.582C72.8064 11.302 72.6337 11.1013 72.4004 10.98C72.1671 10.8493 71.8777 10.7933 71.5324 10.812C71.2524 10.812 70.9957 10.8587 70.7624 10.952C70.5291 11.036 70.3237 11.1573 70.1464 11.316C69.9784 11.4747 69.8431 11.6613 69.7404 11.876C69.6471 12.0813 69.6004 12.3053 69.6004 12.548V17H68.8864C68.7651 17 68.6437 17 68.5224 17C68.4011 17 68.2797 17 68.1584 17ZM77.3946 17V7.774H78.8366V17H77.3946ZM75.8686 11.05V9.65H80.5446V11.05H75.8686ZM84.581 17.14C83.965 17.14 83.4097 17.0327 82.915 16.818C82.4204 16.6033 82.0097 16.286 81.683 15.866L82.663 15.026C82.943 15.3527 83.2464 15.5907 83.573 15.74C83.909 15.88 84.287 15.95 84.707 15.95C84.875 15.95 85.029 15.9313 85.169 15.894C85.3184 15.8473 85.4444 15.782 85.547 15.698C85.659 15.614 85.743 15.516 85.799 15.404C85.855 15.2827 85.883 15.152 85.883 15.012C85.883 14.7693 85.7944 14.5733 85.617 14.424C85.5237 14.3587 85.3744 14.2887 85.169 14.214C84.973 14.13 84.7164 14.046 84.399 13.962C83.8577 13.822 83.4144 13.6633 83.069 13.486C82.7237 13.3087 82.4577 13.108 82.271 12.884C82.131 12.7067 82.0284 12.5153 81.963 12.31C81.8977 12.0953 81.865 11.862 81.865 11.61C81.865 11.302 81.9304 11.022 82.061 10.77C82.201 10.5087 82.3877 10.2847 82.621 10.098C82.8637 9.902 83.1437 9.75267 83.461 9.65C83.7877 9.54733 84.133 9.496 84.497 9.496C84.8424 9.496 85.183 9.54267 85.519 9.636C85.8644 9.72933 86.1817 9.86467 86.471 10.042C86.7604 10.2193 87.003 10.4293 87.199 10.672L86.373 11.582C86.1957 11.4047 85.9997 11.2507 85.785 11.12C85.5797 10.98 85.3697 10.8727 85.155 10.798C84.9404 10.7233 84.7444 10.686 84.567 10.686C84.371 10.686 84.1937 10.7047 84.035 10.742C83.8764 10.7793 83.741 10.8353 83.629 10.91C83.5264 10.9847 83.447 11.078 83.391 11.19C83.335 11.302 83.307 11.428 83.307 11.568C83.3164 11.6893 83.3444 11.806 83.391 11.918C83.447 12.0207 83.5217 12.1093 83.615 12.184C83.7177 12.2587 83.8717 12.338 84.077 12.422C84.2824 12.506 84.5437 12.5853 84.861 12.66C85.3277 12.7813 85.7104 12.9167 86.009 13.066C86.317 13.206 86.5597 13.3693 86.737 13.556C86.9237 13.7333 87.0544 13.9387 87.129 14.172C87.2037 14.4053 87.241 14.6667 87.241 14.956C87.241 15.376 87.1197 15.754 86.877 16.09C86.6437 16.4167 86.3264 16.6733 85.925 16.86C85.5237 17.0467 85.0757 17.14 84.581 17.14ZM96.1841 17.14C95.4281 17.14 94.7561 16.9813 94.1681 16.664C93.5894 16.3373 93.1321 15.894 92.7961 15.334C92.4694 14.774 92.3061 14.13 92.3061 13.402C92.3061 12.8233 92.3994 12.296 92.5861 11.82C92.7728 11.344 93.0294 10.9333 93.3561 10.588C93.6921 10.2333 94.0888 9.96267 94.5461 9.776C95.0128 9.58 95.5168 9.482 96.0581 9.482C96.5341 9.482 96.9774 9.57533 97.3881 9.762C97.7988 9.93933 98.1534 10.1867 98.4521 10.504C98.7601 10.8213 98.9934 11.1993 99.1521 11.638C99.3201 12.0673 99.3994 12.5387 99.3901 13.052L99.3761 13.668H93.3701L93.0481 12.52H98.1301L97.9201 12.758V12.422C97.8921 12.114 97.7894 11.8387 97.6121 11.596C97.4348 11.3533 97.2108 11.162 96.9401 11.022C96.6694 10.882 96.3754 10.812 96.0581 10.812C95.5541 10.812 95.1294 10.91 94.7841 11.106C94.4388 11.2927 94.1774 11.5727 94.0001 11.946C93.8228 12.31 93.7341 12.7627 93.7341 13.304C93.7341 13.8173 93.8414 14.2653 94.0561 14.648C94.2708 15.0213 94.5741 15.3107 94.9661 15.516C95.3581 15.7213 95.8108 15.824 96.3241 15.824C96.6881 15.824 97.0241 15.7633 97.3321 15.642C97.6494 15.5207 97.9901 15.3013 98.3541 14.984L99.0821 16.006C98.8581 16.23 98.5828 16.426 98.2561 16.594C97.9388 16.762 97.5981 16.8973 97.2341 17C96.8794 17.0933 96.5294 17.14 96.1841 17.14ZM105.802 17L103.422 13.906L103.212 13.64L100.118 9.65H101.938L104.276 12.702L104.514 13.01L107.566 17H105.802ZM100.132 17L103.03 13.22L103.884 14.242L101.84 17H100.132ZM104.598 13.444L103.8 12.436L105.606 9.65H107.314L104.598 13.444ZM108.778 20.08V9.65H110.234V11.33L110.01 11.204C110.066 10.924 110.224 10.658 110.486 10.406C110.747 10.1447 111.064 9.93467 111.438 9.776C111.82 9.608 112.212 9.524 112.614 9.524C113.276 9.524 113.864 9.68733 114.378 10.014C114.891 10.3407 115.297 10.7887 115.596 11.358C115.894 11.9273 116.044 12.5807 116.044 13.318C116.044 14.046 115.894 14.6993 115.596 15.278C115.306 15.8473 114.905 16.3 114.392 16.636C113.878 16.9627 113.3 17.126 112.656 17.126C112.226 17.126 111.811 17.042 111.41 16.874C111.008 16.6967 110.668 16.4727 110.388 16.202C110.108 15.9313 109.935 15.6513 109.87 15.362L110.234 15.166V20.08H108.778ZM112.418 15.796C112.847 15.796 113.23 15.6887 113.566 15.474C113.902 15.2593 114.168 14.9653 114.364 14.592C114.56 14.2187 114.658 13.794 114.658 13.318C114.658 12.842 114.56 12.422 114.364 12.058C114.177 11.6847 113.916 11.3907 113.58 11.176C113.244 10.9613 112.856 10.854 112.418 10.854C111.979 10.854 111.592 10.9613 111.256 11.176C110.92 11.3813 110.654 11.6707 110.458 12.044C110.262 12.4173 110.164 12.842 110.164 13.318C110.164 13.794 110.262 14.2187 110.458 14.592C110.654 14.9653 110.92 15.2593 111.256 15.474C111.592 15.6887 111.979 15.796 112.418 15.796ZM117.848 17V9.65H119.29V17H117.848ZM118.548 8.026C118.24 8.026 118.002 7.94667 117.834 7.788C117.666 7.62933 117.582 7.40533 117.582 7.116C117.582 6.84533 117.666 6.626 117.834 6.458C118.011 6.29 118.249 6.206 118.548 6.206C118.856 6.206 119.094 6.28533 119.262 6.444C119.43 6.60267 119.514 6.82667 119.514 7.116C119.514 7.38667 119.425 7.606 119.248 7.774C119.08 7.942 118.846 8.026 118.548 8.026ZM121.506 17V9.65H122.962V11.96L122.822 11.4C122.925 11.0453 123.097 10.7233 123.34 10.434C123.592 10.1447 123.877 9.916 124.194 9.748C124.521 9.58 124.857 9.496 125.202 9.496C125.361 9.496 125.51 9.51 125.65 9.538C125.799 9.566 125.916 9.59867 126 9.636L125.622 11.204C125.51 11.1573 125.384 11.12 125.244 11.092C125.113 11.0547 124.983 11.036 124.852 11.036C124.6 11.036 124.357 11.0873 124.124 11.19C123.9 11.2833 123.699 11.4187 123.522 11.596C123.354 11.764 123.219 11.9647 123.116 12.198C123.013 12.422 122.962 12.6693 122.962 12.94V17H121.506ZM130.268 17.14C129.512 17.14 128.84 16.9813 128.252 16.664C127.673 16.3373 127.216 15.894 126.88 15.334C126.553 14.774 126.39 14.13 126.39 13.402C126.39 12.8233 126.483 12.296 126.67 11.82C126.857 11.344 127.113 10.9333 127.44 10.588C127.776 10.2333 128.173 9.96267 128.63 9.776C129.097 9.58 129.601 9.482 130.142 9.482C130.618 9.482 131.061 9.57533 131.472 9.762C131.883 9.93933 132.237 10.1867 132.536 10.504C132.844 10.8213 133.077 11.1993 133.236 11.638C133.404 12.0673 133.483 12.5387 133.474 13.052L133.46 13.668H127.454L127.132 12.52H132.214L132.004 12.758V12.422C131.976 12.114 131.873 11.8387 131.696 11.596C131.519 11.3533 131.295 11.162 131.024 11.022C130.753 10.882 130.459 10.812 130.142 10.812C129.638 10.812 129.213 10.91 128.868 11.106C128.523 11.2927 128.261 11.5727 128.084 11.946C127.907 12.31 127.818 12.7627 127.818 13.304C127.818 13.8173 127.925 14.2653 128.14 14.648C128.355 15.0213 128.658 15.3107 129.05 15.516C129.442 15.7213 129.895 15.824 130.408 15.824C130.772 15.824 131.108 15.7633 131.416 15.642C131.733 15.5207 132.074 15.3013 132.438 14.984L133.166 16.006C132.942 16.23 132.667 16.426 132.34 16.594C132.023 16.762 131.682 16.8973 131.318 17C130.963 17.0933 130.613 17.14 130.268 17.14ZM138.107 17.14C137.435 17.14 136.833 16.9767 136.301 16.65C135.779 16.314 135.363 15.8613 135.055 15.292C134.747 14.7133 134.593 14.0553 134.593 13.318C134.593 12.5807 134.743 11.9273 135.041 11.358C135.349 10.7793 135.765 10.3267 136.287 10C136.81 9.664 137.403 9.496 138.065 9.496C138.429 9.496 138.779 9.55667 139.115 9.678C139.461 9.79 139.769 9.94867 140.039 10.154C140.31 10.35 140.52 10.5693 140.669 10.812C140.828 11.0453 140.907 11.2833 140.907 11.526L140.487 11.554V6.64H141.929V17H140.487V15.25H140.767C140.767 15.474 140.693 15.698 140.543 15.922C140.394 16.1367 140.193 16.3373 139.941 16.524C139.699 16.7107 139.414 16.86 139.087 16.972C138.77 17.084 138.443 17.14 138.107 17.14ZM138.303 15.894C138.742 15.894 139.129 15.782 139.465 15.558C139.801 15.334 140.063 15.0307 140.249 14.648C140.445 14.256 140.543 13.8127 140.543 13.318C140.543 12.8233 140.445 12.3847 140.249 12.002C140.063 11.61 139.801 11.302 139.465 11.078C139.129 10.854 138.742 10.742 138.303 10.742C137.865 10.742 137.477 10.854 137.141 11.078C136.805 11.302 136.539 11.61 136.343 12.002C136.157 12.3847 136.063 12.8233 136.063 13.318C136.063 13.8127 136.157 14.256 136.343 14.648C136.539 15.0307 136.805 15.334 137.141 15.558C137.477 15.782 137.865 15.894 138.303 15.894Z" fill="#C0392B"/>
</svg>
