<svg width="139" height="24" viewBox="0 0 139 24" fill="none" xmlns="http://www.w3.org/2000/svg">
<rect width="139" height="24" rx="9" fill="#E74C3C" fill-opacity="0.2"/>
<path d="M31.008 17V15.6H32.59V8.6H31.008V7.2H35.684V8.6H34.102V15.6H35.684V17H31.008ZM39.9195 17V8.656H37.1755V7.2H44.2595V8.656H41.4315V17H39.9195ZM46.124 17V7.2H50.114C50.646 7.2 51.1266 7.33533 51.556 7.606C51.9946 7.86733 52.3446 8.22667 52.606 8.684C52.8673 9.14133 52.998 9.65 52.998 10.21C52.998 10.77 52.8673 11.2787 52.606 11.736C52.3446 12.1933 51.9946 12.562 51.556 12.842C51.1266 13.1127 50.646 13.248 50.114 13.248H47.636V17H46.124ZM47.636 11.792H50.086C50.338 11.792 50.5666 11.722 50.772 11.582C50.9773 11.4327 51.1406 11.2413 51.262 11.008C51.3926 10.7653 51.458 10.4993 51.458 10.21C51.458 9.92067 51.3926 9.65933 51.262 9.426C51.1406 9.19267 50.9773 9.006 50.772 8.866C50.5666 8.726 50.338 8.656 50.086 8.656H47.636V11.792ZM61.9868 17.14C61.2308 17.14 60.5588 16.9813 59.9708 16.664C59.3922 16.3373 58.9348 15.894 58.5988 15.334C58.2722 14.774 58.1088 14.13 58.1088 13.402C58.1088 12.8233 58.2022 12.296 58.3888 11.82C58.5755 11.344 58.8322 10.9333 59.1588 10.588C59.4948 10.2333 59.8915 9.96267 60.3488 9.776C60.8155 9.58 61.3195 9.482 61.8608 9.482C62.3368 9.482 62.7802 9.57533 63.1908 9.762C63.6015 9.93933 63.9562 10.1867 64.2548 10.504C64.5628 10.8213 64.7962 11.1993 64.9548 11.638C65.1228 12.0673 65.2022 12.5387 65.1928 13.052L65.1788 13.668H59.1728L58.8508 12.52H63.9328L63.7228 12.758V12.422C63.6948 12.114 63.5922 11.8387 63.4148 11.596C63.2375 11.3533 63.0135 11.162 62.7428 11.022C62.4722 10.882 62.1782 10.812 61.8608 10.812C61.3568 10.812 60.9322 10.91 60.5868 11.106C60.2415 11.2927 59.9802 11.5727 59.8028 11.946C59.6255 12.31 59.5368 12.7627 59.5368 13.304C59.5368 13.8173 59.6442 14.2653 59.8588 14.648C60.0735 15.0213 60.3768 15.3107 60.7688 15.516C61.1608 15.7213 61.6135 15.824 62.1268 15.824C62.4908 15.824 62.8268 15.7633 63.1348 15.642C63.4522 15.5207 63.7928 15.3013 64.1568 14.984L64.8848 16.006C64.6608 16.23 64.3855 16.426 64.0588 16.594C63.7415 16.762 63.4008 16.8973 63.0368 17C62.6822 17.0933 62.3322 17.14 61.9868 17.14ZM71.6049 17L69.2249 13.906L69.0149 13.64L65.9209 9.65H67.7409L70.0789 12.702L70.3169 13.01L73.3689 17H71.6049ZM65.9349 17L68.8329 13.22L69.6869 14.242L67.6429 17H65.9349ZM70.4009 13.444L69.6029 12.436L71.4089 9.65H73.1169L70.4009 13.444ZM74.5803 20.08V9.65H76.0363V11.33L75.8123 11.204C75.8683 10.924 76.0269 10.658 76.2883 10.406C76.5496 10.1447 76.8669 9.93467 77.2403 9.776C77.6229 9.608 78.0149 9.524 78.4163 9.524C79.0789 9.524 79.6669 9.68733 80.1803 10.014C80.6936 10.3407 81.0996 10.7887 81.3983 11.358C81.6969 11.9273 81.8463 12.5807 81.8463 13.318C81.8463 14.046 81.6969 14.6993 81.3983 15.278C81.1089 15.8473 80.7076 16.3 80.1943 16.636C79.6809 16.9627 79.1023 17.126 78.4583 17.126C78.0289 17.126 77.6136 17.042 77.2123 16.874C76.8109 16.6967 76.4703 16.4727 76.1903 16.202C75.9103 15.9313 75.7376 15.6513 75.6723 15.362L76.0363 15.166V20.08H74.5803ZM78.2203 15.796C78.6496 15.796 79.0323 15.6887 79.3683 15.474C79.7043 15.2593 79.9703 14.9653 80.1663 14.592C80.3623 14.2187 80.4603 13.794 80.4603 13.318C80.4603 12.842 80.3623 12.422 80.1663 12.058C79.9796 11.6847 79.7183 11.3907 79.3823 11.176C79.0463 10.9613 78.6589 10.854 78.2203 10.854C77.7816 10.854 77.3943 10.9613 77.0583 11.176C76.7223 11.3813 76.4563 11.6707 76.2603 12.044C76.0643 12.4173 75.9663 12.842 75.9663 13.318C75.9663 13.794 76.0643 14.2187 76.2603 14.592C76.4563 14.9653 76.7223 15.2593 77.0583 15.474C77.3943 15.6887 77.7816 15.796 78.2203 15.796ZM83.6503 17V9.65H85.0923V17H83.6503ZM84.3503 8.026C84.0423 8.026 83.8043 7.94667 83.6363 7.788C83.4683 7.62933 83.3843 7.40533 83.3843 7.116C83.3843 6.84533 83.4683 6.626 83.6363 6.458C83.8136 6.29 84.0516 6.206 84.3503 6.206C84.6583 6.206 84.8963 6.28533 85.0643 6.444C85.2323 6.60267 85.3163 6.82667 85.3163 7.116C85.3163 7.38667 85.2276 7.606 85.0503 7.774C84.8823 7.942 84.649 8.026 84.3503 8.026ZM87.3088 17V9.65H88.7648V11.96L88.6248 11.4C88.7274 11.0453 88.9001 10.7233 89.1428 10.434C89.3948 10.1447 89.6794 9.916 89.9968 9.748C90.3234 9.58 90.6594 9.496 91.0048 9.496C91.1634 9.496 91.3128 9.51 91.4528 9.538C91.6021 9.566 91.7188 9.59867 91.8028 9.636L91.4248 11.204C91.3128 11.1573 91.1868 11.12 91.0468 11.092C90.9161 11.0547 90.7854 11.036 90.6548 11.036C90.4028 11.036 90.1601 11.0873 89.9268 11.19C89.7028 11.2833 89.5021 11.4187 89.3248 11.596C89.1568 11.764 89.0214 11.9647 88.9188 12.198C88.8161 12.422 88.7648 12.6693 88.7648 12.94V17H87.3088ZM96.0708 17.14C95.3148 17.14 94.6428 16.9813 94.0548 16.664C93.4761 16.3373 93.0188 15.894 92.6828 15.334C92.3561 14.774 92.1928 14.13 92.1928 13.402C92.1928 12.8233 92.2861 12.296 92.4728 11.82C92.6595 11.344 92.9161 10.9333 93.2428 10.588C93.5788 10.2333 93.9755 9.96267 94.4328 9.776C94.8995 9.58 95.4035 9.482 95.9448 9.482C96.4208 9.482 96.8641 9.57533 97.2748 9.762C97.6855 9.93933 98.0401 10.1867 98.3388 10.504C98.6468 10.8213 98.8801 11.1993 99.0388 11.638C99.2068 12.0673 99.2861 12.5387 99.2768 13.052L99.2628 13.668H93.2568L92.9348 12.52H98.0168L97.8068 12.758V12.422C97.7788 12.114 97.6761 11.8387 97.4988 11.596C97.3215 11.3533 97.0975 11.162 96.8268 11.022C96.5561 10.882 96.2621 10.812 95.9448 10.812C95.4408 10.812 95.0161 10.91 94.6708 11.106C94.3255 11.2927 94.0641 11.5727 93.8868 11.946C93.7095 12.31 93.6208 12.7627 93.6208 13.304C93.6208 13.8173 93.7281 14.2653 93.9428 14.648C94.1575 15.0213 94.4608 15.3107 94.8528 15.516C95.2448 15.7213 95.6975 15.824 96.2108 15.824C96.5748 15.824 96.9108 15.7633 97.2188 15.642C97.5361 15.5207 97.8768 15.3013 98.2408 14.984L98.9688 16.006C98.7448 16.23 98.4695 16.426 98.1428 16.594C97.8255 16.762 97.4848 16.8973 97.1208 17C96.7661 17.0933 96.4161 17.14 96.0708 17.14ZM103.91 17.14C103.238 17.14 102.636 16.9767 102.104 16.65C101.581 16.314 101.166 15.8613 100.858 15.292C100.55 14.7133 100.396 14.0553 100.396 13.318C100.396 12.5807 100.545 11.9273 100.844 11.358C101.152 10.7793 101.567 10.3267 102.09 10C102.613 9.664 103.205 9.496 103.868 9.496C104.232 9.496 104.582 9.55667 104.918 9.678C105.263 9.79 105.571 9.94867 105.842 10.154C106.113 10.35 106.323 10.5693 106.472 10.812C106.631 11.0453 106.71 11.2833 106.71 11.526L106.29 11.554V6.64H107.732V17H106.29V15.25H106.57C106.57 15.474 106.495 15.698 106.346 15.922C106.197 16.1367 105.996 16.3373 105.744 16.524C105.501 16.7107 105.217 16.86 104.89 16.972C104.573 17.084 104.246 17.14 103.91 17.14ZM104.106 15.894C104.545 15.894 104.932 15.782 105.268 15.558C105.604 15.334 105.865 15.0307 106.052 14.648C106.248 14.256 106.346 13.8127 106.346 13.318C106.346 12.8233 106.248 12.3847 106.052 12.002C105.865 11.61 105.604 11.302 105.268 11.078C104.932 10.854 104.545 10.742 104.106 10.742C103.667 10.742 103.28 10.854 102.944 11.078C102.608 11.302 102.342 11.61 102.146 12.002C101.959 12.3847 101.866 12.8233 101.866 13.318C101.866 13.8127 101.959 14.256 102.146 14.648C102.342 15.0307 102.608 15.334 102.944 15.558C103.28 15.782 103.667 15.894 104.106 15.894Z" fill="#C0392B"/>
</svg>
