<svg width="139" height="24" viewBox="0 0 139 24" fill="none" xmlns="http://www.w3.org/2000/svg">
<rect width="139" height="24" rx="9" fill="#E74C3C" fill-opacity="0.2"/>
<path d="M31.372 17V7.2H35.544C36.104 7.2 36.6173 7.34 37.084 7.62C37.56 7.89067 37.938 8.264 38.218 8.74C38.498 9.20667 38.638 9.734 38.638 10.322C38.638 10.854 38.498 11.3487 38.218 11.806C37.938 12.2633 37.5647 12.632 37.098 12.912C36.6313 13.1827 36.1133 13.318 35.544 13.318H32.884V17H31.372ZM37.196 17L34.704 12.576L36.258 12.226L39.03 17.014L37.196 17ZM32.884 11.862H35.684C35.9547 11.862 36.1973 11.7967 36.412 11.666C36.6267 11.526 36.7947 11.3393 36.916 11.106C37.0373 10.8633 37.098 10.5973 37.098 10.308C37.098 9.98133 37.0187 9.69667 36.86 9.454C36.7107 9.202 36.496 9.006 36.216 8.866C35.9453 8.726 35.6373 8.656 35.292 8.656H32.884V11.862ZM44.9457 17.14C44.2643 17.14 43.639 17.0187 43.0697 16.776C42.5003 16.5333 42.0057 16.188 41.5857 15.74C41.1657 15.2827 40.839 14.746 40.6057 14.13C40.3817 13.514 40.2697 12.8373 40.2697 12.1C40.2697 11.4 40.391 10.7513 40.6337 10.154C40.8857 9.54733 41.231 9.01533 41.6697 8.558C42.1083 8.10067 42.617 7.746 43.1957 7.494C43.7743 7.242 44.3997 7.116 45.0717 7.116C45.5477 7.116 46.0097 7.19067 46.4577 7.34C46.915 7.48 47.3257 7.68067 47.6897 7.942C48.063 8.194 48.3663 8.48333 48.5997 8.81L47.5917 9.86C47.321 9.58933 47.0457 9.36533 46.7657 9.188C46.495 9.00133 46.215 8.86133 45.9257 8.768C45.6457 8.67467 45.361 8.628 45.0717 8.628C44.6143 8.628 44.185 8.71667 43.7837 8.894C43.3917 9.062 43.0463 9.3 42.7477 9.608C42.4583 9.916 42.2297 10.2847 42.0617 10.714C41.8937 11.134 41.8097 11.596 41.8097 12.1C41.8097 12.632 41.889 13.1173 42.0477 13.556C42.2157 13.9853 42.449 14.354 42.7477 14.662C43.0463 14.97 43.401 15.208 43.8117 15.376C44.2317 15.5347 44.6937 15.614 45.1977 15.614C45.5057 15.614 45.809 15.572 46.1077 15.488C46.4063 15.404 46.6863 15.2827 46.9477 15.124C47.209 14.9653 47.447 14.7787 47.6617 14.564L48.4177 15.796C48.203 16.048 47.909 16.2767 47.5357 16.482C47.1717 16.6873 46.761 16.8507 46.3037 16.972C45.8557 17.084 45.403 17.14 44.9457 17.14ZM49.4496 17L53.2436 7.2H54.7836L58.5496 17H56.9396L54.6996 11.092C54.6716 11.0267 54.6156 10.868 54.5316 10.616C54.4569 10.364 54.3683 10.084 54.2656 9.776C54.1629 9.468 54.0696 9.188 53.9856 8.936C53.9016 8.67467 53.8456 8.50667 53.8176 8.432L54.1396 8.418C54.0836 8.57667 54.0136 8.77733 53.9296 9.02C53.8549 9.26267 53.7709 9.51933 53.6776 9.79C53.5936 10.0607 53.5096 10.3173 53.4256 10.56C53.3416 10.7933 53.2716 10.9893 53.2156 11.148L50.9896 17H49.4496ZM51.1296 14.564L51.6896 13.108H56.1416L56.7856 14.564H51.1296ZM67.2642 17.14C66.5082 17.14 65.8362 16.9813 65.2482 16.664C64.6695 16.3373 64.2122 15.894 63.8762 15.334C63.5495 14.774 63.3862 14.13 63.3862 13.402C63.3862 12.8233 63.4795 12.296 63.6662 11.82C63.8528 11.344 64.1095 10.9333 64.4362 10.588C64.7722 10.2333 65.1688 9.96267 65.6262 9.776C66.0928 9.58 66.5968 9.482 67.1382 9.482C67.6142 9.482 68.0575 9.57533 68.4682 9.762C68.8788 9.93933 69.2335 10.1867 69.5322 10.504C69.8402 10.8213 70.0735 11.1993 70.2322 11.638C70.4002 12.0673 70.4795 12.5387 70.4702 13.052L70.4562 13.668H64.4502L64.1282 12.52H69.2102L69.0002 12.758V12.422C68.9722 12.114 68.8695 11.8387 68.6922 11.596C68.5148 11.3533 68.2908 11.162 68.0202 11.022C67.7495 10.882 67.4555 10.812 67.1382 10.812C66.6342 10.812 66.2095 10.91 65.8642 11.106C65.5188 11.2927 65.2575 11.5727 65.0802 11.946C64.9028 12.31 64.8142 12.7627 64.8142 13.304C64.8142 13.8173 64.9215 14.2653 65.1362 14.648C65.3508 15.0213 65.6542 15.3107 66.0462 15.516C66.4382 15.7213 66.8908 15.824 67.4042 15.824C67.7682 15.824 68.1042 15.7633 68.4122 15.642C68.7295 15.5207 69.0702 15.3013 69.4342 14.984L70.1622 16.006C69.9382 16.23 69.6628 16.426 69.3362 16.594C69.0188 16.762 68.6782 16.8973 68.3142 17C67.9595 17.0933 67.6095 17.14 67.2642 17.14ZM76.8823 17L74.5023 13.906L74.2923 13.64L71.1983 9.65H73.0183L75.3563 12.702L75.5943 13.01L78.6463 17H76.8823ZM71.2123 17L74.1103 13.22L74.9643 14.242L72.9203 17H71.2123ZM75.6783 13.444L74.8803 12.436L76.6863 9.65H78.3943L75.6783 13.444ZM79.8576 20.08V9.65H81.3136V11.33L81.0896 11.204C81.1456 10.924 81.3043 10.658 81.5656 10.406C81.8269 10.1447 82.1443 9.93467 82.5176 9.776C82.9003 9.608 83.2923 9.524 83.6936 9.524C84.3563 9.524 84.9443 9.68733 85.4576 10.014C85.9709 10.3407 86.3769 10.7887 86.6756 11.358C86.9743 11.9273 87.1236 12.5807 87.1236 13.318C87.1236 14.046 86.9743 14.6993 86.6756 15.278C86.3863 15.8473 85.9849 16.3 85.4716 16.636C84.9583 16.9627 84.3796 17.126 83.7356 17.126C83.3063 17.126 82.8909 17.042 82.4896 16.874C82.0883 16.6967 81.7476 16.4727 81.4676 16.202C81.1876 15.9313 81.0149 15.6513 80.9496 15.362L81.3136 15.166V20.08H79.8576ZM83.4976 15.796C83.9269 15.796 84.3096 15.6887 84.6456 15.474C84.9816 15.2593 85.2476 14.9653 85.4436 14.592C85.6396 14.2187 85.7376 13.794 85.7376 13.318C85.7376 12.842 85.6396 12.422 85.4436 12.058C85.2569 11.6847 84.9956 11.3907 84.6596 11.176C84.3236 10.9613 83.9363 10.854 83.4976 10.854C83.0589 10.854 82.6716 10.9613 82.3356 11.176C81.9996 11.3813 81.7336 11.6707 81.5376 12.044C81.3416 12.4173 81.2436 12.842 81.2436 13.318C81.2436 13.794 81.3416 14.2187 81.5376 14.592C81.7336 14.9653 81.9996 15.2593 82.3356 15.474C82.6716 15.6887 83.0589 15.796 83.4976 15.796ZM88.9276 17V9.65H90.3696V17H88.9276ZM89.6276 8.026C89.3196 8.026 89.0816 7.94667 88.9136 7.788C88.7456 7.62933 88.6616 7.40533 88.6616 7.116C88.6616 6.84533 88.7456 6.626 88.9136 6.458C89.091 6.29 89.329 6.206 89.6276 6.206C89.9356 6.206 90.1736 6.28533 90.3416 6.444C90.5096 6.60267 90.5936 6.82667 90.5936 7.116C90.5936 7.38667 90.505 7.606 90.3276 7.774C90.1596 7.942 89.9263 8.026 89.6276 8.026ZM92.5861 17V9.65H94.0421V11.96L93.9021 11.4C94.0048 11.0453 94.1775 10.7233 94.4201 10.434C94.6721 10.1447 94.9568 9.916 95.2741 9.748C95.6008 9.58 95.9368 9.496 96.2821 9.496C96.4408 9.496 96.5901 9.51 96.7301 9.538C96.8795 9.566 96.9961 9.59867 97.0801 9.636L96.7021 11.204C96.5901 11.1573 96.4641 11.12 96.3241 11.092C96.1935 11.0547 96.0628 11.036 95.9321 11.036C95.6801 11.036 95.4375 11.0873 95.2041 11.19C94.9801 11.2833 94.7795 11.4187 94.6021 11.596C94.4341 11.764 94.2988 11.9647 94.1961 12.198C94.0935 12.422 94.0421 12.6693 94.0421 12.94V17H92.5861ZM101.348 17.14C100.592 17.14 99.9202 16.9813 99.3322 16.664C98.7535 16.3373 98.2962 15.894 97.9602 15.334C97.6335 14.774 97.4702 14.13 97.4702 13.402C97.4702 12.8233 97.5635 12.296 97.7502 11.82C97.9368 11.344 98.1935 10.9333 98.5202 10.588C98.8562 10.2333 99.2528 9.96267 99.7102 9.776C100.177 9.58 100.681 9.482 101.222 9.482C101.698 9.482 102.141 9.57533 102.552 9.762C102.963 9.93933 103.317 10.1867 103.616 10.504C103.924 10.8213 104.157 11.1993 104.316 11.638C104.484 12.0673 104.563 12.5387 104.554 13.052L104.54 13.668H98.5342L98.2122 12.52H103.294L103.084 12.758V12.422C103.056 12.114 102.953 11.8387 102.776 11.596C102.599 11.3533 102.375 11.162 102.104 11.022C101.833 10.882 101.539 10.812 101.222 10.812C100.718 10.812 100.293 10.91 99.9482 11.106C99.6028 11.2927 99.3415 11.5727 99.1642 11.946C98.9868 12.31 98.8982 12.7627 98.8982 13.304C98.8982 13.8173 99.0055 14.2653 99.2202 14.648C99.4348 15.0213 99.7382 15.3107 100.13 15.516C100.522 15.7213 100.975 15.824 101.488 15.824C101.852 15.824 102.188 15.7633 102.496 15.642C102.813 15.5207 103.154 15.3013 103.518 14.984L104.246 16.006C104.022 16.23 103.747 16.426 103.42 16.594C103.103 16.762 102.762 16.8973 102.398 17C102.043 17.0933 101.693 17.14 101.348 17.14ZM109.187 17.14C108.515 17.14 107.913 16.9767 107.381 16.65C106.859 16.314 106.443 15.8613 106.135 15.292C105.827 14.7133 105.673 14.0553 105.673 13.318C105.673 12.5807 105.823 11.9273 106.121 11.358C106.429 10.7793 106.845 10.3267 107.367 10C107.89 9.664 108.483 9.496 109.145 9.496C109.509 9.496 109.859 9.55667 110.195 9.678C110.541 9.79 110.849 9.94867 111.119 10.154C111.39 10.35 111.6 10.5693 111.749 10.812C111.908 11.0453 111.987 11.2833 111.987 11.526L111.567 11.554V6.64H113.009V17H111.567V15.25H111.847C111.847 15.474 111.773 15.698 111.623 15.922C111.474 16.1367 111.273 16.3373 111.021 16.524C110.779 16.7107 110.494 16.86 110.167 16.972C109.85 17.084 109.523 17.14 109.187 17.14ZM109.383 15.894C109.822 15.894 110.209 15.782 110.545 15.558C110.881 15.334 111.143 15.0307 111.329 14.648C111.525 14.256 111.623 13.8127 111.623 13.318C111.623 12.8233 111.525 12.3847 111.329 12.002C111.143 11.61 110.881 11.302 110.545 11.078C110.209 10.854 109.822 10.742 109.383 10.742C108.945 10.742 108.557 10.854 108.221 11.078C107.885 11.302 107.619 11.61 107.423 12.002C107.237 12.3847 107.143 12.8233 107.143 13.318C107.143 13.8127 107.237 14.256 107.423 14.648C107.619 15.0307 107.885 15.334 108.221 15.558C108.557 15.782 108.945 15.894 109.383 15.894Z" fill="#C0392B"/>
</svg>
