<svg width="75" height="24" viewBox="0 0 75 24" fill="none" xmlns="http://www.w3.org/2000/svg">
<rect width="75" height="24" rx="9" fill="#2C3E50" fill-opacity="0.2"/>
<path d="M19.7851 17V7.2H23.8731C24.4984 7.2 25.0258 7.29333 25.4551 7.48C25.8844 7.66667 26.2064 7.94667 26.4211 8.32C26.6451 8.684 26.7571 9.132 26.7571 9.664C26.7571 10.196 26.6078 10.6487 26.3091 11.022C26.0198 11.3953 25.6138 11.652 25.0911 11.792V11.512C25.5298 11.6053 25.9124 11.7733 26.2391 12.016C26.5658 12.2493 26.8178 12.5433 26.9951 12.898C27.1818 13.2527 27.2751 13.6587 27.2751 14.116C27.2751 14.5827 27.2004 14.998 27.0511 15.362C26.9111 15.7167 26.6964 16.0153 26.4071 16.258C26.1271 16.5007 25.7864 16.6873 25.3851 16.818C24.9838 16.9393 24.5264 17 24.0131 17H19.7851ZM21.2971 15.544H23.9291C24.3118 15.544 24.6338 15.488 24.8951 15.376C25.1658 15.264 25.3711 15.1007 25.5111 14.886C25.6604 14.662 25.7351 14.396 25.7351 14.088C25.7351 13.7987 25.6558 13.5513 25.4971 13.346C25.3478 13.1407 25.1331 12.9867 24.8531 12.884C24.5731 12.772 24.2418 12.716 23.8591 12.716H21.2971V15.544ZM21.2971 11.26H23.7891C24.0691 11.26 24.3164 11.204 24.5311 11.092C24.7551 10.98 24.9278 10.826 25.0491 10.63C25.1798 10.434 25.2451 10.21 25.2451 9.958C25.2451 9.538 25.1051 9.216 24.8251 8.992C24.5451 8.768 24.1438 8.656 23.6211 8.656H21.2971V11.26ZM28.9374 17V6.64H30.3794V17H28.9374ZM35.1143 17.14C34.5077 17.14 33.9523 16.972 33.4483 16.636C32.9537 16.3 32.557 15.8427 32.2583 15.264C31.9597 14.6853 31.8103 14.032 31.8103 13.304C31.8103 12.5667 31.9597 11.9133 32.2583 11.344C32.5663 10.7653 32.977 10.3127 33.4903 9.986C34.013 9.65933 34.5963 9.496 35.2403 9.496C35.623 9.496 35.973 9.552 36.2903 9.664C36.6077 9.776 36.883 9.93467 37.1163 10.14C37.359 10.336 37.555 10.5647 37.7043 10.826C37.863 11.0873 37.961 11.3673 37.9983 11.666L37.6763 11.554V9.65H39.1323V17H37.6763V15.25L38.0123 15.152C37.9563 15.404 37.8397 15.6513 37.6623 15.894C37.4943 16.1273 37.275 16.3373 37.0043 16.524C36.743 16.7107 36.449 16.86 36.1223 16.972C35.805 17.084 35.469 17.14 35.1143 17.14ZM35.4923 15.81C35.931 15.81 36.3183 15.7027 36.6543 15.488C36.9903 15.2733 37.2517 14.9793 37.4383 14.606C37.6343 14.2233 37.7323 13.7893 37.7323 13.304C37.7323 12.828 37.6343 12.4033 37.4383 12.03C37.2517 11.6567 36.9903 11.3627 36.6543 11.148C36.3183 10.9333 35.931 10.826 35.4923 10.826C35.063 10.826 34.6803 10.9333 34.3443 11.148C34.0177 11.3627 33.7563 11.6567 33.5603 12.03C33.3737 12.4033 33.2803 12.828 33.2803 13.304C33.2803 13.7893 33.3737 14.2233 33.5603 14.606C33.7563 14.9793 34.0177 15.2733 34.3443 15.488C34.6803 15.7027 35.063 15.81 35.4923 15.81ZM44.2677 17.14C43.5864 17.14 42.975 16.972 42.4337 16.636C41.9017 16.3 41.477 15.8427 41.1597 15.264C40.8517 14.6853 40.6977 14.0367 40.6977 13.318C40.6977 12.5993 40.8517 11.9507 41.1597 11.372C41.477 10.7933 41.9017 10.336 42.4337 10C42.975 9.664 43.5864 9.496 44.2677 9.496C44.921 9.496 45.5137 9.63133 46.0457 9.902C46.587 10.1633 46.9977 10.5227 47.2777 10.98L46.4797 11.96C46.3304 11.7453 46.139 11.5493 45.9057 11.372C45.6724 11.1947 45.425 11.0547 45.1637 10.952C44.9024 10.8493 44.6504 10.798 44.4077 10.798C43.9597 10.798 43.5584 10.91 43.2037 11.134C42.8584 11.3487 42.583 11.6473 42.3777 12.03C42.1724 12.4127 42.0697 12.842 42.0697 13.318C42.0697 13.794 42.177 14.2233 42.3917 14.606C42.6064 14.9793 42.891 15.278 43.2457 15.502C43.6004 15.726 43.9924 15.838 44.4217 15.838C44.6737 15.838 44.9164 15.796 45.1497 15.712C45.3924 15.628 45.6257 15.502 45.8497 15.334C46.0737 15.166 46.2837 14.9607 46.4797 14.718L47.2777 15.698C46.979 16.118 46.5497 16.4633 45.9897 16.734C45.439 17.0047 44.865 17.14 44.2677 17.14ZM49.9539 14.704L49.8839 13.136L53.3979 9.65H55.3439L49.9539 14.704ZM48.6379 17V6.64H50.0799V17H48.6379ZM53.5939 17L50.8219 13.766L51.8439 12.828L55.4419 17H53.5939Z" fill="#2C3E50"/>
</svg>
