<svg width="75" height="24" viewBox="0 0 75 24" fill="none" xmlns="http://www.w3.org/2000/svg">
<rect width="75" height="24" rx="9" fill="#3498DB" fill-opacity="0.2"/>
<path d="M24.372 17V7.2H28.46C29.0853 7.2 29.6127 7.29333 30.042 7.48C30.4713 7.66667 30.7933 7.94667 31.008 8.32C31.232 8.684 31.344 9.132 31.344 9.664C31.344 10.196 31.1947 10.6487 30.896 11.022C30.6067 11.3953 30.2007 11.652 29.678 11.792V11.512C30.1167 11.6053 30.4993 11.7733 30.826 12.016C31.1527 12.2493 31.4047 12.5433 31.582 12.898C31.7687 13.2527 31.862 13.6587 31.862 14.116C31.862 14.5827 31.7873 14.998 31.638 15.362C31.498 15.7167 31.2833 16.0153 30.994 16.258C30.714 16.5007 30.3733 16.6873 29.972 16.818C29.5707 16.9393 29.1133 17 28.6 17H24.372ZM25.884 15.544H28.516C28.8987 15.544 29.2207 15.488 29.482 15.376C29.7527 15.264 29.958 15.1007 30.098 14.886C30.2473 14.662 30.322 14.396 30.322 14.088C30.322 13.7987 30.2427 13.5513 30.084 13.346C29.9347 13.1407 29.72 12.9867 29.44 12.884C29.16 12.772 28.8287 12.716 28.446 12.716H25.884V15.544ZM25.884 11.26H28.376C28.656 11.26 28.9033 11.204 29.118 11.092C29.342 10.98 29.5147 10.826 29.636 10.63C29.7667 10.434 29.832 10.21 29.832 9.958C29.832 9.538 29.692 9.216 29.412 8.992C29.132 8.768 28.7307 8.656 28.208 8.656H25.884V11.26ZM33.5243 17V6.64H34.9663V17H33.5243ZM39.5176 17.14C38.9949 17.14 38.5376 17.0187 38.1456 16.776C37.7629 16.5333 37.4643 16.1927 37.2496 15.754C37.0443 15.3153 36.9416 14.7927 36.9416 14.186V9.65H38.3836V13.794C38.3836 14.2233 38.4489 14.5967 38.5796 14.914C38.7196 15.222 38.9156 15.46 39.1676 15.628C39.4289 15.796 39.7416 15.88 40.1056 15.88C40.3763 15.88 40.6236 15.838 40.8476 15.754C41.0716 15.6607 41.2629 15.5347 41.4216 15.376C41.5896 15.2173 41.7203 15.026 41.8136 14.802C41.9069 14.578 41.9536 14.3353 41.9536 14.074V9.65H43.3956V17H41.9536V15.46L42.2056 15.292C42.0936 15.6373 41.9023 15.95 41.6316 16.23C41.3703 16.51 41.0576 16.734 40.6936 16.902C40.3296 17.0607 39.9376 17.14 39.5176 17.14ZM48.8482 17.14C48.0922 17.14 47.4202 16.9813 46.8322 16.664C46.2535 16.3373 45.7962 15.894 45.4602 15.334C45.1335 14.774 44.9702 14.13 44.9702 13.402C44.9702 12.8233 45.0635 12.296 45.2502 11.82C45.4368 11.344 45.6935 10.9333 46.0202 10.588C46.3562 10.2333 46.7528 9.96267 47.2102 9.776C47.6768 9.58 48.1808 9.482 48.7222 9.482C49.1982 9.482 49.6415 9.57533 50.0522 9.762C50.4628 9.93933 50.8175 10.1867 51.1162 10.504C51.4242 10.8213 51.6575 11.1993 51.8162 11.638C51.9842 12.0673 52.0635 12.5387 52.0542 13.052L52.0402 13.668H46.0342L45.7122 12.52H50.7942L50.5842 12.758V12.422C50.5562 12.114 50.4535 11.8387 50.2762 11.596C50.0988 11.3533 49.8748 11.162 49.6042 11.022C49.3335 10.882 49.0395 10.812 48.7222 10.812C48.2182 10.812 47.7935 10.91 47.4482 11.106C47.1028 11.2927 46.8415 11.5727 46.6642 11.946C46.4868 12.31 46.3982 12.7627 46.3982 13.304C46.3982 13.8173 46.5055 14.2653 46.7202 14.648C46.9348 15.0213 47.2382 15.3107 47.6302 15.516C48.0222 15.7213 48.4748 15.824 48.9882 15.824C49.3522 15.824 49.6882 15.7633 49.9962 15.642C50.3135 15.5207 50.6542 15.3013 51.0182 14.984L51.7462 16.006C51.5222 16.23 51.2468 16.426 50.9202 16.594C50.6028 16.762 50.2622 16.8973 49.8982 17C49.5435 17.0933 49.1935 17.14 48.8482 17.14Z" fill="#2980B9"/>
</svg>
