<svg width="75" height="24" viewBox="0 0 75 24" fill="none" xmlns="http://www.w3.org/2000/svg">
<rect width="75" height="24" rx="9" fill="#2ECC71" fill-opacity="0.2"/>
<path d="M22.8624 17.14C22.1531 17.14 21.4904 17.014 20.8744 16.762C20.2584 16.5007 19.7171 16.1413 19.2504 15.684C18.7837 15.2267 18.4197 14.6947 18.1584 14.088C17.9064 13.472 17.7804 12.8093 17.7804 12.1C17.7804 11.4 17.9064 10.7467 18.1584 10.14C18.4197 9.53333 18.7791 9.006 19.2364 8.558C19.7031 8.10067 20.2444 7.746 20.8604 7.494C21.4764 7.242 22.1391 7.116 22.8484 7.116C23.3431 7.116 23.8237 7.186 24.2904 7.326C24.7664 7.466 25.1957 7.662 25.5784 7.914C25.9611 8.166 26.2737 8.45533 26.5164 8.782L25.5364 9.804C25.2564 9.53333 24.9671 9.30933 24.6684 9.132C24.3791 8.95467 24.0804 8.81933 23.7724 8.726C23.4644 8.63267 23.1564 8.586 22.8484 8.586C22.3444 8.586 21.8777 8.67467 21.4484 8.852C21.0284 9.02933 20.6551 9.27667 20.3284 9.594C20.0111 9.91133 19.7637 10.2847 19.5864 10.714C19.4091 11.134 19.3204 11.596 19.3204 12.1C19.3204 12.5853 19.4137 13.0473 19.6004 13.486C19.7871 13.9153 20.0437 14.2933 20.3704 14.62C20.7064 14.9467 21.0891 15.2033 21.5184 15.39C21.9571 15.5767 22.4191 15.67 22.9044 15.67C23.2684 15.67 23.6137 15.6187 23.9404 15.516C24.2671 15.404 24.5564 15.25 24.8084 15.054C25.0604 14.858 25.2564 14.634 25.3964 14.382C25.5364 14.1207 25.6064 13.8453 25.6064 13.556V13.276L25.8164 13.472H22.8204V11.974H27.1604C27.1791 12.0767 27.1931 12.1793 27.2024 12.282C27.2117 12.3753 27.2164 12.4687 27.2164 12.562C27.2257 12.646 27.2304 12.73 27.2304 12.814C27.2304 13.458 27.1184 14.046 26.8944 14.578C26.6704 15.1007 26.3577 15.5533 25.9564 15.936C25.5644 16.3187 25.1024 16.6173 24.5704 16.832C24.0477 17.0373 23.4784 17.14 22.8624 17.14ZM28.8351 17V9.65H30.2911V11.96L30.1511 11.4C30.2538 11.0453 30.4265 10.7233 30.6691 10.434C30.9211 10.1447 31.2058 9.916 31.5231 9.748C31.8498 9.58 32.1858 9.496 32.5311 9.496C32.6898 9.496 32.8391 9.51 32.9791 9.538C33.1285 9.566 33.2451 9.59867 33.3291 9.636L32.9511 11.204C32.8391 11.1573 32.7131 11.12 32.5731 11.092C32.4425 11.0547 32.3118 11.036 32.1811 11.036C31.9291 11.036 31.6865 11.0873 31.4531 11.19C31.2291 11.2833 31.0285 11.4187 30.8511 11.596C30.6831 11.764 30.5478 11.9647 30.4451 12.198C30.3425 12.422 30.2911 12.6693 30.2911 12.94V17H28.8351ZM37.5972 17.14C36.8412 17.14 36.1692 16.9813 35.5812 16.664C35.0025 16.3373 34.5452 15.894 34.2092 15.334C33.8825 14.774 33.7192 14.13 33.7192 13.402C33.7192 12.8233 33.8125 12.296 33.9992 11.82C34.1858 11.344 34.4425 10.9333 34.7692 10.588C35.1052 10.2333 35.5018 9.96267 35.9592 9.776C36.4258 9.58 36.9298 9.482 37.4712 9.482C37.9472 9.482 38.3905 9.57533 38.8012 9.762C39.2118 9.93933 39.5665 10.1867 39.8652 10.504C40.1732 10.8213 40.4065 11.1993 40.5652 11.638C40.7332 12.0673 40.8125 12.5387 40.8032 13.052L40.7892 13.668H34.7832L34.4612 12.52H39.5432L39.3332 12.758V12.422C39.3052 12.114 39.2025 11.8387 39.0252 11.596C38.8478 11.3533 38.6238 11.162 38.3532 11.022C38.0825 10.882 37.7885 10.812 37.4712 10.812C36.9672 10.812 36.5425 10.91 36.1972 11.106C35.8518 11.2927 35.5905 11.5727 35.4132 11.946C35.2358 12.31 35.1472 12.7627 35.1472 13.304C35.1472 13.8173 35.2545 14.2653 35.4692 14.648C35.6838 15.0213 35.9872 15.3107 36.3792 15.516C36.7712 15.7213 37.2238 15.824 37.7372 15.824C38.1012 15.824 38.4372 15.7633 38.7452 15.642C39.0625 15.5207 39.4032 15.3013 39.7672 14.984L40.4952 16.006C40.2712 16.23 39.9958 16.426 39.6692 16.594C39.3518 16.762 39.0112 16.8973 38.6472 17C38.2925 17.0933 37.9425 17.14 37.5972 17.14ZM45.8003 17.14C45.0443 17.14 44.3723 16.9813 43.7843 16.664C43.2056 16.3373 42.7483 15.894 42.4123 15.334C42.0856 14.774 41.9223 14.13 41.9223 13.402C41.9223 12.8233 42.0156 12.296 42.2023 11.82C42.389 11.344 42.6456 10.9333 42.9723 10.588C43.3083 10.2333 43.705 9.96267 44.1623 9.776C44.629 9.58 45.133 9.482 45.6743 9.482C46.1503 9.482 46.5936 9.57533 47.0043 9.762C47.415 9.93933 47.7696 10.1867 48.0683 10.504C48.3763 10.8213 48.6096 11.1993 48.7683 11.638C48.9363 12.0673 49.0156 12.5387 49.0063 13.052L48.9923 13.668H42.9863L42.6643 12.52H47.7463L47.5363 12.758V12.422C47.5083 12.114 47.4056 11.8387 47.2283 11.596C47.051 11.3533 46.827 11.162 46.5563 11.022C46.2856 10.882 45.9916 10.812 45.6743 10.812C45.1703 10.812 44.7456 10.91 44.4003 11.106C44.055 11.2927 43.7936 11.5727 43.6163 11.946C43.439 12.31 43.3503 12.7627 43.3503 13.304C43.3503 13.8173 43.4576 14.2653 43.6723 14.648C43.887 15.0213 44.1903 15.3107 44.5823 15.516C44.9743 15.7213 45.427 15.824 45.9403 15.824C46.3043 15.824 46.6403 15.7633 46.9483 15.642C47.2656 15.5207 47.6063 15.3013 47.9703 14.984L48.6983 16.006C48.4743 16.23 48.199 16.426 47.8723 16.594C47.555 16.762 47.2143 16.8973 46.8503 17C46.4956 17.0933 46.1456 17.14 45.8003 17.14ZM50.5734 17V9.65H52.0154V11.162L51.7634 11.33C51.8568 11.0033 52.0388 10.7047 52.3094 10.434C52.5801 10.154 52.9021 9.93 53.2754 9.762C53.6488 9.58467 54.0314 9.496 54.4234 9.496C54.9834 9.496 55.4501 9.608 55.8234 9.832C56.1968 10.0467 56.4768 10.378 56.6634 10.826C56.8501 11.274 56.9434 11.8387 56.9434 12.52V17H55.5014V12.618C55.5014 12.198 55.4454 11.8527 55.3334 11.582C55.2214 11.302 55.0488 11.1013 54.8154 10.98C54.5821 10.8493 54.2928 10.7933 53.9474 10.812C53.6674 10.812 53.4108 10.8587 53.1774 10.952C52.9441 11.036 52.7388 11.1573 52.5614 11.316C52.3934 11.4747 52.2581 11.6613 52.1554 11.876C52.0621 12.0813 52.0154 12.3053 52.0154 12.548V17H51.3014C51.1801 17 51.0588 17 50.9374 17C50.8161 17 50.6948 17 50.5734 17Z" fill="#27AE60"/>
</svg>
