<svg width="75" height="24" viewBox="0 0 75 24" fill="none" xmlns="http://www.w3.org/2000/svg">
<rect width="75" height="24" rx="9" fill="#95A5A6" fill-opacity="0.2"/>
<path d="M27.128 17.14C26.4187 17.14 25.756 17.014 25.14 16.762C24.524 16.5007 23.9827 16.1413 23.516 15.684C23.0494 15.2267 22.6854 14.6947 22.424 14.088C22.172 13.472 22.046 12.8093 22.046 12.1C22.046 11.4 22.172 10.7467 22.424 10.14C22.6854 9.53333 23.0447 9.006 23.502 8.558C23.9687 8.10067 24.51 7.746 25.126 7.494C25.742 7.242 26.4047 7.116 27.114 7.116C27.6087 7.116 28.0894 7.186 28.556 7.326C29.032 7.466 29.4614 7.662 29.844 7.914C30.2267 8.166 30.5394 8.45533 30.782 8.782L29.802 9.804C29.522 9.53333 29.2327 9.30933 28.934 9.132C28.6447 8.95467 28.346 8.81933 28.038 8.726C27.73 8.63267 27.422 8.586 27.114 8.586C26.61 8.586 26.1434 8.67467 25.714 8.852C25.294 9.02933 24.9207 9.27667 24.594 9.594C24.2767 9.91133 24.0294 10.2847 23.852 10.714C23.6747 11.134 23.586 11.596 23.586 12.1C23.586 12.5853 23.6794 13.0473 23.866 13.486C24.0527 13.9153 24.3094 14.2933 24.636 14.62C24.972 14.9467 25.3547 15.2033 25.784 15.39C26.2227 15.5767 26.6847 15.67 27.17 15.67C27.534 15.67 27.8794 15.6187 28.206 15.516C28.5327 15.404 28.822 15.25 29.074 15.054C29.326 14.858 29.522 14.634 29.662 14.382C29.802 14.1207 29.872 13.8453 29.872 13.556V13.276L30.082 13.472H27.086V11.974H31.426C31.4447 12.0767 31.4587 12.1793 31.468 12.282C31.4774 12.3753 31.482 12.4687 31.482 12.562C31.4914 12.646 31.496 12.73 31.496 12.814C31.496 13.458 31.384 14.046 31.16 14.578C30.936 15.1007 30.6234 15.5533 30.222 15.936C29.83 16.3187 29.368 16.6173 28.836 16.832C28.3134 17.0373 27.744 17.14 27.128 17.14ZM33.1008 17V9.65H34.5568V11.96L34.4168 11.4C34.5194 11.0453 34.6921 10.7233 34.9348 10.434C35.1868 10.1447 35.4714 9.916 35.7888 9.748C36.1154 9.58 36.4514 9.496 36.7968 9.496C36.9554 9.496 37.1048 9.51 37.2448 9.538C37.3941 9.566 37.5108 9.59867 37.5948 9.636L37.2168 11.204C37.1048 11.1573 36.9788 11.12 36.8388 11.092C36.7081 11.0547 36.5774 11.036 36.4468 11.036C36.1948 11.036 35.9521 11.0873 35.7188 11.19C35.4948 11.2833 35.2941 11.4187 35.1168 11.596C34.9488 11.764 34.8134 11.9647 34.7108 12.198C34.6081 12.422 34.5568 12.6693 34.5568 12.94V17H33.1008ZM41.8628 17.14C41.1068 17.14 40.4348 16.9813 39.8468 16.664C39.2681 16.3373 38.8108 15.894 38.4748 15.334C38.1481 14.774 37.9848 14.13 37.9848 13.402C37.9848 12.8233 38.0781 12.296 38.2648 11.82C38.4515 11.344 38.7081 10.9333 39.0348 10.588C39.3708 10.2333 39.7675 9.96267 40.2248 9.776C40.6915 9.58 41.1955 9.482 41.7368 9.482C42.2128 9.482 42.6561 9.57533 43.0668 9.762C43.4775 9.93933 43.8321 10.1867 44.1308 10.504C44.4388 10.8213 44.6721 11.1993 44.8308 11.638C44.9988 12.0673 45.0781 12.5387 45.0688 13.052L45.0548 13.668H39.0488L38.7268 12.52H43.8088L43.5988 12.758V12.422C43.5708 12.114 43.4681 11.8387 43.2908 11.596C43.1135 11.3533 42.8895 11.162 42.6188 11.022C42.3481 10.882 42.0541 10.812 41.7368 10.812C41.2328 10.812 40.8081 10.91 40.4628 11.106C40.1175 11.2927 39.8561 11.5727 39.6788 11.946C39.5015 12.31 39.4128 12.7627 39.4128 13.304C39.4128 13.8173 39.5201 14.2653 39.7348 14.648C39.9495 15.0213 40.2528 15.3107 40.6448 15.516C41.0368 15.7213 41.4895 15.824 42.0028 15.824C42.3668 15.824 42.7028 15.7633 43.0108 15.642C43.3281 15.5207 43.6688 15.3013 44.0328 14.984L44.7608 16.006C44.5368 16.23 44.2615 16.426 43.9348 16.594C43.6175 16.762 43.2768 16.8973 42.9128 17C42.5581 17.0933 42.2081 17.14 41.8628 17.14ZM47.7312 20.22L49.2152 16.79L49.2292 17.938L45.5612 9.65H47.2412L49.5372 15.054C49.5839 15.1473 49.6399 15.292 49.7052 15.488C49.7705 15.6747 49.8265 15.8613 49.8732 16.048L49.5092 16.132C49.5839 15.936 49.6539 15.74 49.7192 15.544C49.7939 15.348 49.8639 15.152 49.9292 14.956L51.8472 9.65H53.5552L50.5312 17L49.2852 20.22H47.7312Z" fill="#7F8C8D"/>
</svg>
