<svg width="75" height="24" viewBox="0 0 75 24" fill="none" xmlns="http://www.w3.org/2000/svg">
<rect width="75" height="24" rx="9" fill="#E67E22" fill-opacity="0.2"/>
<path d="M17.5922 17.14C16.9015 17.14 16.2622 17.014 15.6742 16.762C15.0955 16.51 14.5868 16.16 14.1482 15.712C13.7188 15.2547 13.3828 14.7227 13.1402 14.116C12.9068 13.5 12.7902 12.828 12.7902 12.1C12.7902 11.372 12.9068 10.7047 13.1402 10.098C13.3828 9.482 13.7188 8.95 14.1482 8.502C14.5868 8.04467 15.0955 7.69 15.6742 7.438C16.2622 7.186 16.9015 7.06 17.5922 7.06C18.2828 7.06 18.9175 7.186 19.4962 7.438C20.0842 7.69 20.5928 8.04467 21.0222 8.502C21.4608 8.95933 21.7968 9.496 22.0302 10.112C22.2728 10.7187 22.3942 11.3813 22.3942 12.1C22.3942 12.8187 22.2728 13.486 22.0302 14.102C21.7968 14.7087 21.4608 15.2407 21.0222 15.698C20.5928 16.1553 20.0842 16.51 19.4962 16.762C18.9175 17.014 18.2828 17.14 17.5922 17.14ZM17.5922 15.67C18.0682 15.67 18.5022 15.5813 18.8942 15.404C19.2955 15.2267 19.6408 14.9793 19.9302 14.662C20.2195 14.3353 20.4435 13.9573 20.6022 13.528C20.7702 13.0893 20.8542 12.6133 20.8542 12.1C20.8542 11.5867 20.7702 11.1153 20.6022 10.686C20.4435 10.2473 20.2195 9.86933 19.9302 9.552C19.6408 9.22533 19.2955 8.97333 18.8942 8.796C18.5022 8.61867 18.0682 8.53 17.5922 8.53C17.1162 8.53 16.6775 8.61867 16.2762 8.796C15.8842 8.97333 15.5388 9.22067 15.2402 9.538C14.9508 9.85533 14.7268 10.2333 14.5682 10.672C14.4095 11.1013 14.3302 11.5773 14.3302 12.1C14.3302 12.6133 14.4095 13.0893 14.5682 13.528C14.7268 13.9667 14.9508 14.3447 15.2402 14.662C15.5388 14.9793 15.8842 15.2267 16.2762 15.404C16.6775 15.5813 17.1162 15.67 17.5922 15.67ZM24.0773 17V9.65H25.5333V11.96L25.3933 11.4C25.496 11.0453 25.6687 10.7233 25.9113 10.434C26.1633 10.1447 26.448 9.916 26.7653 9.748C27.092 9.58 27.428 9.496 27.7733 9.496C27.932 9.496 28.0813 9.51 28.2213 9.538C28.3707 9.566 28.4873 9.59867 28.5713 9.636L28.1933 11.204C28.0813 11.1573 27.9553 11.12 27.8153 11.092C27.6847 11.0547 27.554 11.036 27.4233 11.036C27.1713 11.036 26.9287 11.0873 26.6953 11.19C26.4713 11.2833 26.2707 11.4187 26.0933 11.596C25.9253 11.764 25.79 11.9647 25.6873 12.198C25.5847 12.422 25.5333 12.6693 25.5333 12.94V17H24.0773ZM32.2374 17.14C31.6307 17.14 31.0754 16.972 30.5714 16.636C30.0767 16.3 29.68 15.8427 29.3814 15.264C29.0827 14.6853 28.9334 14.032 28.9334 13.304C28.9334 12.5667 29.0827 11.9133 29.3814 11.344C29.6894 10.7653 30.1 10.3127 30.6134 9.986C31.136 9.65933 31.7194 9.496 32.3634 9.496C32.746 9.496 33.096 9.552 33.4134 9.664C33.7307 9.776 34.006 9.93467 34.2394 10.14C34.482 10.336 34.678 10.5647 34.8274 10.826C34.986 11.0873 35.084 11.3673 35.1214 11.666L34.7994 11.554V9.65H36.2554V17H34.7994V15.25L35.1354 15.152C35.0794 15.404 34.9627 15.6513 34.7854 15.894C34.6174 16.1273 34.398 16.3373 34.1274 16.524C33.866 16.7107 33.572 16.86 33.2454 16.972C32.928 17.084 32.592 17.14 32.2374 17.14ZM32.6154 15.81C33.054 15.81 33.4414 15.7027 33.7774 15.488C34.1134 15.2733 34.3747 14.9793 34.5614 14.606C34.7574 14.2233 34.8554 13.7893 34.8554 13.304C34.8554 12.828 34.7574 12.4033 34.5614 12.03C34.3747 11.6567 34.1134 11.3627 33.7774 11.148C33.4414 10.9333 33.054 10.826 32.6154 10.826C32.186 10.826 31.8034 10.9333 31.4674 11.148C31.1407 11.3627 30.8794 11.6567 30.6834 12.03C30.4967 12.4033 30.4034 12.828 30.4034 13.304C30.4034 13.7893 30.4967 14.2233 30.6834 14.606C30.8794 14.9793 31.1407 15.2733 31.4674 15.488C31.8034 15.7027 32.186 15.81 32.6154 15.81ZM38.2687 17V9.65H39.7107V11.162L39.4587 11.33C39.5521 11.0033 39.7341 10.7047 40.0047 10.434C40.2754 10.154 40.5974 9.93 40.9707 9.762C41.3441 9.58467 41.7267 9.496 42.1187 9.496C42.6787 9.496 43.1454 9.608 43.5187 9.832C43.8921 10.0467 44.1721 10.378 44.3587 10.826C44.5454 11.274 44.6387 11.8387 44.6387 12.52V17H43.1967V12.618C43.1967 12.198 43.1407 11.8527 43.0287 11.582C42.9167 11.302 42.7441 11.1013 42.5107 10.98C42.2774 10.8493 41.9881 10.7933 41.6427 10.812C41.3627 10.812 41.1061 10.8587 40.8727 10.952C40.6394 11.036 40.4341 11.1573 40.2567 11.316C40.0887 11.4747 39.9534 11.6613 39.8507 11.876C39.7574 12.0813 39.7107 12.3053 39.7107 12.548V17H38.9967C38.8754 17 38.7541 17 38.6327 17C38.5114 17 38.3901 17 38.2687 17ZM49.8849 20.22C49.3622 20.22 48.8396 20.136 48.3169 19.968C47.8036 19.8093 47.3882 19.5993 47.0709 19.338L47.6029 18.218C47.7896 18.358 48.0089 18.4793 48.2609 18.582C48.5129 18.694 48.7789 18.778 49.0589 18.834C49.3389 18.8993 49.6142 18.932 49.8849 18.932C50.3982 18.932 50.8276 18.848 51.1729 18.68C51.5182 18.512 51.7796 18.2647 51.9569 17.938C52.1342 17.6113 52.2229 17.2053 52.2229 16.72V15.306L52.3769 15.404C52.3302 15.6933 52.1762 15.9733 51.9149 16.244C51.6629 16.5053 51.3456 16.72 50.9629 16.888C50.5802 17.056 50.1882 17.14 49.7869 17.14C49.0869 17.14 48.4616 16.9767 47.9109 16.65C47.3696 16.314 46.9402 15.8613 46.6229 15.292C46.3056 14.7133 46.1469 14.0553 46.1469 13.318C46.1469 12.5807 46.3009 11.9273 46.6089 11.358C46.9262 10.7793 47.3556 10.3267 47.8969 10C48.4476 9.664 49.0636 9.496 49.7449 9.496C50.0249 9.496 50.2956 9.53333 50.5569 9.608C50.8182 9.67333 51.0609 9.77133 51.2849 9.902C51.5089 10.0233 51.7096 10.1587 51.8869 10.308C52.0642 10.4573 52.2089 10.616 52.3209 10.784C52.4329 10.952 52.5029 11.1107 52.5309 11.26L52.2229 11.372V9.65H53.6649V16.552C53.6649 17.14 53.5762 17.658 53.3989 18.106C53.2309 18.5633 52.9836 18.946 52.6569 19.254C52.3302 19.5713 51.9336 19.8093 51.4669 19.968C51.0002 20.136 50.4729 20.22 49.8849 20.22ZM49.9409 15.81C50.3982 15.81 50.8042 15.7027 51.1589 15.488C51.5136 15.2733 51.7889 14.9793 51.9849 14.606C52.1809 14.2327 52.2789 13.8033 52.2789 13.318C52.2789 12.8327 52.1762 12.4033 51.9709 12.03C51.7749 11.6473 51.4996 11.3487 51.1449 11.134C50.7996 10.9193 50.3982 10.812 49.9409 10.812C49.4929 10.812 49.0916 10.924 48.7369 11.148C48.3916 11.3627 48.1162 11.6613 47.9109 12.044C47.7149 12.4173 47.6169 12.842 47.6169 13.318C47.6169 13.794 47.7149 14.2233 47.9109 14.606C48.1162 14.9793 48.3916 15.2733 48.7369 15.488C49.0916 15.7027 49.4929 15.81 49.9409 15.81ZM59.1167 17.14C58.3607 17.14 57.6887 16.9813 57.1007 16.664C56.522 16.3373 56.0647 15.894 55.7287 15.334C55.402 14.774 55.2387 14.13 55.2387 13.402C55.2387 12.8233 55.332 12.296 55.5187 11.82C55.7054 11.344 55.962 10.9333 56.2887 10.588C56.6247 10.2333 57.0214 9.96267 57.4787 9.776C57.9454 9.58 58.4494 9.482 58.9907 9.482C59.4667 9.482 59.91 9.57533 60.3207 9.762C60.7314 9.93933 61.086 10.1867 61.3847 10.504C61.6927 10.8213 61.926 11.1993 62.0847 11.638C62.2527 12.0673 62.332 12.5387 62.3227 13.052L62.3087 13.668H56.3027L55.9807 12.52H61.0627L60.8527 12.758V12.422C60.8247 12.114 60.722 11.8387 60.5447 11.596C60.3674 11.3533 60.1434 11.162 59.8727 11.022C59.602 10.882 59.308 10.812 58.9907 10.812C58.4867 10.812 58.062 10.91 57.7167 11.106C57.3714 11.2927 57.11 11.5727 56.9327 11.946C56.7554 12.31 56.6667 12.7627 56.6667 13.304C56.6667 13.8173 56.774 14.2653 56.9887 14.648C57.2034 15.0213 57.5067 15.3107 57.8987 15.516C58.2907 15.7213 58.7434 15.824 59.2567 15.824C59.6207 15.824 59.9567 15.7633 60.2647 15.642C60.582 15.5207 60.9227 15.3013 61.2867 14.984L62.0147 16.006C61.7907 16.23 61.5154 16.426 61.1887 16.594C60.8714 16.762 60.5307 16.8973 60.1667 17C59.812 17.0933 59.462 17.14 59.1167 17.14Z" fill="#D35400"/>
</svg>
