<svg width="75" height="24" viewBox="0 0 75 24" fill="none" xmlns="http://www.w3.org/2000/svg">
<rect width="75" height="24" rx="9" fill="#9B59B6" fill-opacity="0.2"/>
<path d="M16.7021 17V7.2H20.6921C21.2241 7.2 21.7047 7.33533 22.1341 7.606C22.5727 7.86733 22.9227 8.22667 23.1841 8.684C23.4454 9.14133 23.5761 9.65 23.5761 10.21C23.5761 10.77 23.4454 11.2787 23.1841 11.736C22.9227 12.1933 22.5727 12.562 22.1341 12.842C21.7047 13.1127 21.2241 13.248 20.6921 13.248H18.2141V17H16.7021ZM18.2141 11.792H20.6641C20.9161 11.792 21.1447 11.722 21.3501 11.582C21.5554 11.4327 21.7187 11.2413 21.8401 11.008C21.9707 10.7653 22.0361 10.4993 22.0361 10.21C22.0361 9.92067 21.9707 9.65933 21.8401 9.426C21.7187 9.19267 21.5554 9.006 21.3501 8.866C21.1447 8.726 20.9161 8.656 20.6641 8.656H18.2141V11.792ZM27.7188 17.14C27.1961 17.14 26.7388 17.0187 26.3468 16.776C25.9641 16.5333 25.6654 16.1927 25.4508 15.754C25.2454 15.3153 25.1428 14.7927 25.1428 14.186V9.65H26.5848V13.794C26.5848 14.2233 26.6501 14.5967 26.7808 14.914C26.9208 15.222 27.1168 15.46 27.3688 15.628C27.6301 15.796 27.9428 15.88 28.3068 15.88C28.5774 15.88 28.8248 15.838 29.0488 15.754C29.2728 15.6607 29.4641 15.5347 29.6228 15.376C29.7908 15.2173 29.9214 15.026 30.0148 14.802C30.1081 14.578 30.1548 14.3353 30.1548 14.074V9.65H31.5968V17H30.1548V15.46L30.4068 15.292C30.2948 15.6373 30.1034 15.95 29.8328 16.23C29.5714 16.51 29.2588 16.734 28.8948 16.902C28.5308 17.0607 28.1388 17.14 27.7188 17.14ZM33.6193 17V9.65H35.0753V11.96L34.9353 11.4C35.038 11.0453 35.2107 10.7233 35.4533 10.434C35.7053 10.1447 35.99 9.916 36.3073 9.748C36.634 9.58 36.97 9.496 37.3153 9.496C37.474 9.496 37.6233 9.51 37.7633 9.538C37.9127 9.566 38.0293 9.59867 38.1133 9.636L37.7353 11.204C37.6233 11.1573 37.4973 11.12 37.3573 11.092C37.2267 11.0547 37.096 11.036 36.9653 11.036C36.7133 11.036 36.4707 11.0873 36.2373 11.19C36.0133 11.2833 35.8127 11.4187 35.6353 11.596C35.4673 11.764 35.332 11.9647 35.2293 12.198C35.1267 12.422 35.0753 12.6693 35.0753 12.94V17H33.6193ZM39.2658 20.08V9.65H40.7218V11.33L40.4978 11.204C40.5538 10.924 40.7125 10.658 40.9738 10.406C41.2351 10.1447 41.5525 9.93467 41.9258 9.776C42.3085 9.608 42.7005 9.524 43.1018 9.524C43.7645 9.524 44.3525 9.68733 44.8658 10.014C45.3791 10.3407 45.7851 10.7887 46.0838 11.358C46.3825 11.9273 46.5318 12.5807 46.5318 13.318C46.5318 14.046 46.3825 14.6993 46.0838 15.278C45.7945 15.8473 45.3931 16.3 44.8798 16.636C44.3665 16.9627 43.7878 17.126 43.1438 17.126C42.7145 17.126 42.2991 17.042 41.8978 16.874C41.4965 16.6967 41.1558 16.4727 40.8758 16.202C40.5958 15.9313 40.4231 15.6513 40.3578 15.362L40.7218 15.166V20.08H39.2658ZM42.9058 15.796C43.3351 15.796 43.7178 15.6887 44.0538 15.474C44.3898 15.2593 44.6558 14.9653 44.8518 14.592C45.0478 14.2187 45.1458 13.794 45.1458 13.318C45.1458 12.842 45.0478 12.422 44.8518 12.058C44.6651 11.6847 44.4038 11.3907 44.0678 11.176C43.7318 10.9613 43.3445 10.854 42.9058 10.854C42.4671 10.854 42.0798 10.9613 41.7438 11.176C41.4078 11.3813 41.1418 11.6707 40.9458 12.044C40.7498 12.4173 40.6518 12.842 40.6518 13.318C40.6518 13.794 40.7498 14.2187 40.9458 14.592C41.1418 14.9653 41.4078 15.2593 41.7438 15.474C42.0798 15.6887 42.4671 15.796 42.9058 15.796ZM48.1258 17V6.64H49.5678V17H48.1258ZM54.9048 17.14C54.1488 17.14 53.4768 16.9813 52.8888 16.664C52.3101 16.3373 51.8528 15.894 51.5168 15.334C51.1901 14.774 51.0268 14.13 51.0268 13.402C51.0268 12.8233 51.1201 12.296 51.3068 11.82C51.4935 11.344 51.7501 10.9333 52.0768 10.588C52.4128 10.2333 52.8095 9.96267 53.2668 9.776C53.7335 9.58 54.2375 9.482 54.7788 9.482C55.2548 9.482 55.6981 9.57533 56.1088 9.762C56.5195 9.93933 56.8741 10.1867 57.1728 10.504C57.4808 10.8213 57.7141 11.1993 57.8728 11.638C58.0408 12.0673 58.1201 12.5387 58.1108 13.052L58.0968 13.668H52.0908L51.7688 12.52H56.8508L56.6408 12.758V12.422C56.6128 12.114 56.5101 11.8387 56.3328 11.596C56.1555 11.3533 55.9315 11.162 55.6608 11.022C55.3901 10.882 55.0961 10.812 54.7788 10.812C54.2748 10.812 53.8501 10.91 53.5048 11.106C53.1595 11.2927 52.8981 11.5727 52.7208 11.946C52.5435 12.31 52.4548 12.7627 52.4548 13.304C52.4548 13.8173 52.5621 14.2653 52.7768 14.648C52.9915 15.0213 53.2948 15.3107 53.6868 15.516C54.0788 15.7213 54.5315 15.824 55.0448 15.824C55.4088 15.824 55.7448 15.7633 56.0528 15.642C56.3701 15.5207 56.7108 15.3013 57.0748 14.984L57.8028 16.006C57.5788 16.23 57.3035 16.426 56.9768 16.594C56.6595 16.762 56.3188 16.8973 55.9548 17C55.6001 17.0933 55.2501 17.14 54.9048 17.14Z" fill="#8E44AD"/>
</svg>
