<svg width="75" height="24" viewBox="0 0 75 24" fill="none" xmlns="http://www.w3.org/2000/svg">
<rect width="75" height="24" rx="9" fill="#E74C3C" fill-opacity="0.2"/>
<path d="M25.6034 17V7.2H29.7754C30.3354 7.2 30.8488 7.34 31.3154 7.62C31.7914 7.89067 32.1694 8.264 32.4494 8.74C32.7294 9.20667 32.8694 9.734 32.8694 10.322C32.8694 10.854 32.7294 11.3487 32.4494 11.806C32.1694 12.2633 31.7961 12.632 31.3294 12.912C30.8628 13.1827 30.3448 13.318 29.7754 13.318H27.1154V17H25.6034ZM31.4274 17L28.9354 12.576L30.4894 12.226L33.2614 17.014L31.4274 17ZM27.1154 11.862H29.9154C30.1861 11.862 30.4288 11.7967 30.6434 11.666C30.8581 11.526 31.0261 11.3393 31.1474 11.106C31.2688 10.8633 31.3294 10.5973 31.3294 10.308C31.3294 9.98133 31.2501 9.69667 31.0914 9.454C30.9421 9.202 30.7274 9.006 30.4474 8.866C30.1768 8.726 29.8688 8.656 29.5234 8.656H27.1154V11.862ZM38.1304 17.14C37.3744 17.14 36.7024 16.9813 36.1144 16.664C35.5357 16.3373 35.0784 15.894 34.7424 15.334C34.4157 14.774 34.2524 14.13 34.2524 13.402C34.2524 12.8233 34.3457 12.296 34.5324 11.82C34.719 11.344 34.9757 10.9333 35.3024 10.588C35.6384 10.2333 36.035 9.96267 36.4924 9.776C36.959 9.58 37.463 9.482 38.0044 9.482C38.4804 9.482 38.9237 9.57533 39.3344 9.762C39.745 9.93933 40.0997 10.1867 40.3984 10.504C40.7064 10.8213 40.9397 11.1993 41.0984 11.638C41.2664 12.0673 41.3457 12.5387 41.3364 13.052L41.3224 13.668H35.3164L34.9944 12.52H40.0764L39.8664 12.758V12.422C39.8384 12.114 39.7357 11.8387 39.5584 11.596C39.381 11.3533 39.157 11.162 38.8864 11.022C38.6157 10.882 38.3217 10.812 38.0044 10.812C37.5004 10.812 37.0757 10.91 36.7304 11.106C36.385 11.2927 36.1237 11.5727 35.9464 11.946C35.769 12.31 35.6804 12.7627 35.6804 13.304C35.6804 13.8173 35.7877 14.2653 36.0024 14.648C36.217 15.0213 36.5204 15.3107 36.9124 15.516C37.3044 15.7213 37.757 15.824 38.2704 15.824C38.6344 15.824 38.9704 15.7633 39.2784 15.642C39.5957 15.5207 39.9364 15.3013 40.3004 14.984L41.0284 16.006C40.8044 16.23 40.529 16.426 40.2024 16.594C39.885 16.762 39.5444 16.8973 39.1804 17C38.8257 17.0933 38.4757 17.14 38.1304 17.14ZM45.9695 17.14C45.2975 17.14 44.6955 16.9767 44.1635 16.65C43.6408 16.314 43.2255 15.8613 42.9175 15.292C42.6095 14.7133 42.4555 14.0553 42.4555 13.318C42.4555 12.5807 42.6048 11.9273 42.9035 11.358C43.2115 10.7793 43.6268 10.3267 44.1495 10C44.6722 9.664 45.2648 9.496 45.9275 9.496C46.2915 9.496 46.6415 9.55667 46.9775 9.678C47.3228 9.79 47.6308 9.94867 47.9015 10.154C48.1722 10.35 48.3822 10.5693 48.5315 10.812C48.6902 11.0453 48.7695 11.2833 48.7695 11.526L48.3495 11.554V6.64H49.7915V17H48.3495V15.25H48.6295C48.6295 15.474 48.5548 15.698 48.4055 15.922C48.2562 16.1367 48.0555 16.3373 47.8035 16.524C47.5608 16.7107 47.2762 16.86 46.9495 16.972C46.6322 17.084 46.3055 17.14 45.9695 17.14ZM46.1655 15.894C46.6042 15.894 46.9915 15.782 47.3275 15.558C47.6635 15.334 47.9248 15.0307 48.1115 14.648C48.3075 14.256 48.4055 13.8127 48.4055 13.318C48.4055 12.8233 48.3075 12.3847 48.1115 12.002C47.9248 11.61 47.6635 11.302 47.3275 11.078C46.9915 10.854 46.6042 10.742 46.1655 10.742C45.7268 10.742 45.3395 10.854 45.0035 11.078C44.6675 11.302 44.4015 11.61 44.2055 12.002C44.0188 12.3847 43.9255 12.8233 43.9255 13.318C43.9255 13.8127 44.0188 14.256 44.2055 14.648C44.4015 15.0307 44.6675 15.334 45.0035 15.558C45.3395 15.782 45.7268 15.894 46.1655 15.894Z" fill="#C0392B"/>
</svg>
