<svg width="75" height="24" viewBox="0 0 75 24" fill="none" xmlns="http://www.w3.org/2000/svg">
<rect width="75" height="24" rx="9" fill="#7F8C8D" fill-opacity="0.1"/>
<path d="M20.6201 17L17.4981 7.2H19.1081L20.9981 13.332C21.0541 13.4813 21.1054 13.6587 21.1521 13.864C21.1988 14.06 21.2408 14.2607 21.2781 14.466C21.3154 14.6713 21.3481 14.8627 21.3761 15.04C21.4134 15.2173 21.4461 15.362 21.4741 15.474L21.0681 15.46C21.2081 14.9653 21.3154 14.5827 21.3901 14.312C21.4741 14.0413 21.5394 13.836 21.5861 13.696C21.6328 13.5467 21.6748 13.4207 21.7121 13.318L23.4761 8.894H24.8341L26.5421 13.318C26.6354 13.542 26.7148 13.766 26.7801 13.99C26.8548 14.2047 26.9201 14.424 26.9761 14.648C27.0321 14.8627 27.0928 15.0913 27.1581 15.334L26.7941 15.432C26.8408 15.18 26.8734 14.984 26.8921 14.844C26.9201 14.6947 26.9434 14.5733 26.9621 14.48C26.9808 14.3867 26.9994 14.298 27.0181 14.214C27.0368 14.1207 27.0648 14.004 27.1021 13.864C27.1488 13.724 27.2094 13.5327 27.2841 13.29L29.1461 7.2H30.7701L27.6481 17H26.5981L24.0081 10.868L24.1341 10.924L21.6421 17H20.6201ZM32.1154 17V6.64H33.5574V11.162L33.3054 11.33C33.3988 11.0033 33.5808 10.7047 33.8514 10.434C34.1221 10.154 34.4441 9.93 34.8174 9.762C35.1908 9.58467 35.5734 9.496 35.9654 9.496C36.5254 9.496 36.9921 9.608 37.3654 9.832C37.7388 10.0467 38.0188 10.378 38.2054 10.826C38.3921 11.274 38.4854 11.8387 38.4854 12.52V17H37.0434V12.618C37.0434 12.198 36.9874 11.8527 36.8754 11.582C36.7634 11.302 36.5908 11.1013 36.3574 10.98C36.1241 10.8493 35.8348 10.7933 35.4894 10.812C35.2094 10.812 34.9528 10.8587 34.7194 10.952C34.4861 11.036 34.2808 11.1573 34.1034 11.316C33.9354 11.4747 33.8001 11.6613 33.6974 11.876C33.6041 12.0813 33.5574 12.3053 33.5574 12.548V17H32.8434C32.7221 17 32.6008 17 32.4794 17C32.3581 17 32.2368 17 32.1154 17ZM40.6796 17V9.65H42.1216V17H40.6796ZM41.3796 8.026C41.0716 8.026 40.8336 7.94667 40.6656 7.788C40.4976 7.62933 40.4136 7.40533 40.4136 7.116C40.4136 6.84533 40.4976 6.626 40.6656 6.458C40.8429 6.29 41.0809 6.206 41.3796 6.206C41.6876 6.206 41.9256 6.28533 42.0936 6.444C42.2616 6.60267 42.3456 6.82667 42.3456 7.116C42.3456 7.38667 42.2569 7.606 42.0796 7.774C41.9116 7.942 41.6783 8.026 41.3796 8.026ZM45.2481 17V7.774H46.6901V17H45.2481ZM43.7221 11.05V9.65H48.3981V11.05H43.7221ZM53.0728 17.14C52.3168 17.14 51.6448 16.9813 51.0568 16.664C50.4781 16.3373 50.0208 15.894 49.6848 15.334C49.3581 14.774 49.1948 14.13 49.1948 13.402C49.1948 12.8233 49.2881 12.296 49.4748 11.82C49.6614 11.344 49.9181 10.9333 50.2448 10.588C50.5808 10.2333 50.9774 9.96267 51.4348 9.776C51.9014 9.58 52.4054 9.482 52.9468 9.482C53.4228 9.482 53.8661 9.57533 54.2768 9.762C54.6874 9.93933 55.0421 10.1867 55.3408 10.504C55.6488 10.8213 55.8821 11.1993 56.0408 11.638C56.2088 12.0673 56.2881 12.5387 56.2788 13.052L56.2648 13.668H50.2588L49.9368 12.52H55.0188L54.8088 12.758V12.422C54.7808 12.114 54.6781 11.8387 54.5008 11.596C54.3234 11.3533 54.0994 11.162 53.8288 11.022C53.5581 10.882 53.2641 10.812 52.9468 10.812C52.4428 10.812 52.0181 10.91 51.6728 11.106C51.3274 11.2927 51.0661 11.5727 50.8888 11.946C50.7114 12.31 50.6228 12.7627 50.6228 13.304C50.6228 13.8173 50.7301 14.2653 50.9448 14.648C51.1594 15.0213 51.4628 15.3107 51.8548 15.516C52.2468 15.7213 52.6994 15.824 53.2128 15.824C53.5768 15.824 53.9128 15.7633 54.2208 15.642C54.5381 15.5207 54.8788 15.3013 55.2428 14.984L55.9708 16.006C55.7468 16.23 55.4714 16.426 55.1448 16.594C54.8274 16.762 54.4868 16.8973 54.1228 17C53.7681 17.0933 53.4181 17.14 53.0728 17.14Z" fill="#F7F8F8"/>
</svg>
