<svg width="75" height="24" viewBox="0 0 75 24" fill="none" xmlns="http://www.w3.org/2000/svg">
<rect width="75" height="24" rx="9" fill="#F1C40F" fill-opacity="0.2"/>
<path d="M20.128 17V12.114L20.226 12.8L16.264 7.2H18.084L21.108 11.54L20.758 11.498L23.488 7.2H25.224L21.43 12.954L21.64 12.002V17H20.128ZM28.6831 17.14C27.9271 17.14 27.2551 16.9813 26.6671 16.664C26.0885 16.3373 25.6311 15.894 25.2951 15.334C24.9685 14.774 24.8051 14.13 24.8051 13.402C24.8051 12.8233 24.8985 12.296 25.0851 11.82C25.2718 11.344 25.5285 10.9333 25.8551 10.588C26.1911 10.2333 26.5878 9.96267 27.0451 9.776C27.5118 9.58 28.0158 9.482 28.5571 9.482C29.0331 9.482 29.4765 9.57533 29.8871 9.762C30.2978 9.93933 30.6525 10.1867 30.9511 10.504C31.2591 10.8213 31.4925 11.1993 31.6511 11.638C31.8191 12.0673 31.8985 12.5387 31.8891 13.052L31.8751 13.668H25.8691L25.5471 12.52H30.6291L30.4191 12.758V12.422C30.3911 12.114 30.2885 11.8387 30.1111 11.596C29.9338 11.3533 29.7098 11.162 29.4391 11.022C29.1685 10.882 28.8745 10.812 28.5571 10.812C28.0531 10.812 27.6285 10.91 27.2831 11.106C26.9378 11.2927 26.6765 11.5727 26.4991 11.946C26.3218 12.31 26.2331 12.7627 26.2331 13.304C26.2331 13.8173 26.3405 14.2653 26.5551 14.648C26.7698 15.0213 27.0731 15.3107 27.4651 15.516C27.8571 15.7213 28.3098 15.824 28.8231 15.824C29.1871 15.824 29.5231 15.7633 29.8311 15.642C30.1485 15.5207 30.4891 15.3013 30.8531 14.984L31.5811 16.006C31.3571 16.23 31.0818 16.426 30.7551 16.594C30.4378 16.762 30.0971 16.8973 29.7331 17C29.3785 17.0933 29.0285 17.14 28.6831 17.14ZM33.4842 17V6.64H34.9262V17H33.4842ZM36.9979 17V6.64H38.4399V17H36.9979ZM43.6509 17.14C42.9322 17.14 42.2882 16.9767 41.7189 16.65C41.1589 16.314 40.7155 15.8613 40.3889 15.292C40.0622 14.7133 39.8989 14.0553 39.8989 13.318C39.8989 12.5807 40.0622 11.9273 40.3889 11.358C40.7155 10.7793 41.1589 10.3267 41.7189 10C42.2882 9.664 42.9322 9.496 43.6509 9.496C44.3602 9.496 44.9949 9.664 45.5549 10C46.1242 10.3267 46.5722 10.7793 46.8989 11.358C47.2255 11.9273 47.3889 12.5807 47.3889 13.318C47.3889 14.0553 47.2255 14.7133 46.8989 15.292C46.5722 15.8613 46.1242 16.314 45.5549 16.65C44.9949 16.9767 44.3602 17.14 43.6509 17.14ZM43.6509 15.824C44.0895 15.824 44.4815 15.7167 44.8269 15.502C45.1722 15.278 45.4429 14.9793 45.6389 14.606C45.8349 14.2233 45.9282 13.794 45.9189 13.318C45.9282 12.8327 45.8349 12.4033 45.6389 12.03C45.4429 11.6473 45.1722 11.3487 44.8269 11.134C44.4815 10.9193 44.0895 10.812 43.6509 10.812C43.2122 10.812 42.8155 10.924 42.4609 11.148C42.1155 11.3627 41.8449 11.6613 41.6489 12.044C41.4529 12.4173 41.3595 12.842 41.3689 13.318C41.3595 13.794 41.4529 14.2233 41.6489 14.606C41.8449 14.9793 42.1155 15.278 42.4609 15.502C42.8155 15.7167 43.2122 15.824 43.6509 15.824ZM50.4927 17L47.9867 9.65L49.4427 9.636L51.2347 15.138L50.9127 15.11L52.8587 10.812H53.7267L55.6867 15.124L55.3087 15.152L57.1147 9.65H58.5707L56.0927 17H55.0987L53.0547 12.324L53.3767 12.366L51.4727 17H50.4927Z" fill="#F39C12"/>
</svg>
